<?xml version="1.0" encoding="utf-8"?>
<!-- Generator: Adobe Illustrator 25.2.1, SVG Export Plug-In . SVG Version: 6.00 Build 0)  -->
<svg version="1.1" id="Layer_1" xmlns="http://www.w3.org/2000/svg" xmlns:xlink="http://www.w3.org/1999/xlink" x="0px" y="0px"
	 viewBox="0 0 590 187" style="enable-background:new 0 0 590 187;" xml:space="preserve">
<style type="text/css">
	.st0{fill:#FFFFFF;}
</style>
<path class="st0" d="M275.6,80.9c-3-1.5-6.9-2.2-11.4-2.2h-13c-3.5,0-6.2-1-8.2-2.8l-0.1-0.1c-1.9-2-2.9-4.3-2.9-7
	c0-2.7,1-5.2,2.9-7.2c1.9-2,4.5-3.1,7.8-3.1h32v-6.9h-33.2c-3.6,0-6.7,0.8-9.5,2.5c-2.8,1.6-4.9,3.7-6.4,6.4
	c-1.5,2.7-2.3,5.5-2.3,8.6c0,3.7,0.8,6.8,2.4,9.4c1.7,2.5,3.9,4.5,6.8,5.9c3,1.3,6.6,1.9,10.7,1.9h13.7c2.3,0,4.3,0.5,6.1,1.6
	c1.8,0.9,3.1,2.3,4,4c0.9,1.6,1.3,3.2,1.3,5.2s-0.5,3.8-1.4,5.6c-0.9,1.8-2.4,3.2-4.2,4.4c-1.8,1-3.9,1.6-6.3,1.6h-30.8v6.9h32.2
	c3.9,0,7.1-0.9,10-2.6c3-1.8,5.2-4,6.8-6.9c1.6-2.9,2.4-6,2.4-9.3c0-3.9-0.8-7.2-2.4-9.8C280.9,84.2,278.7,82.3,275.6,80.9
	L275.6,80.9L275.6,80.9z"/>
<path class="st0" d="M351.9,54.5c-5-3-10.8-4.5-17.4-4.5c-6.6,0-12.4,1.5-17.4,4.5c-5,2.9-9,7-12,12.1c-2.9,5-4.4,10.7-4.4,17
	c0,6.3,1.5,12,4.4,17.1c2.9,5,7,9.1,12,12.1c4.8,2.8,10.4,4.3,16.6,4.4h0.8c6.6,0,12.4-1.4,17.4-4.4c5.1-3,9.1-7.1,12-12
	c2.9-5.1,4.4-10.8,4.4-17.1c0-6.3-1.5-12.1-4.4-17.1C361.1,61.5,357,57.5,351.9,54.5L351.9,54.5L351.9,54.5z M359.5,83.6
	c0,4.9-1,9.5-3.1,13.5c-2.1,4-5,7.2-8.7,9.5c-3.7,2.3-8.2,3.6-13.2,3.6c-4.9,0-9.3-1.2-13.2-3.6c-3.7-2.4-6.6-5.6-8.7-9.5
	c-2.1-4-3.1-8.5-3.1-13.5s1-9.4,3.1-13.4c2.1-4.1,5-7.3,8.7-9.7c3.8-2.4,8.2-3.6,13.1-3.6c4.9,0,9.4,1.2,13.2,3.6
	c3.7,2.4,6.6,5.6,8.7,9.6C358.4,74.2,359.5,78.7,359.5,83.6L359.5,83.6L359.5,83.6z"/>
<path class="st0" d="M432.8,53.7c-4.4-2.4-9.6-3.6-15.5-3.6c-5.9,0-11,1.2-15.5,3.6c-4.5,2.3-8,5.5-10.6,9.8
	c-2.5,4.2-3.7,9.2-3.7,14.8v37.2h8.7V78.4c0-4.4,1-8.2,2.9-11.4c2-3.2,4.6-5.8,7.8-7.5c3.2-1.7,6.7-2.6,10.4-2.6s7.1,0.9,10.2,2.6
	c3.3,1.7,5.9,4.3,7.9,7.5c2,3.2,3,7,3,11.3v37.1h8.7V78.3c0-5.6-1.3-10.6-3.9-14.8C440.8,59.2,437.3,56,432.8,53.7L432.8,53.7
	L432.8,53.7z"/>
<path class="st0" d="M478.8,51.6H470v63.9h8.8V51.6z"/>
<path class="st0" d="M519.1,62c3.9-2.3,8.3-3.4,13.1-3.4h6.6v-6.9h-6.2c-6.6,0-12.7,1.4-17.9,4.3c-5.2,2.8-9.3,6.7-12.4,11.5
	c-3,4.7-4.5,10.1-4.5,16.1c0,6,1.5,11.4,4.5,16.2c3,4.7,7.2,8.6,12.4,11.4c4.5,2.5,13.4,4.3,17.4,4.3h6.6v-6.9h-6.6
	c-4.8,0-9.2-1.1-13.1-3.3c-3.8-2.3-6.8-5.3-9.1-9.1c-2.2-3.8-3.3-8-3.3-12.6c0-4.6,1.1-8.9,3.3-12.7C512.3,67.2,515.3,64.1,519.1,62
	L519.1,62L519.1,62z"/>
<path class="st0" d="M136.9,109.3c-24.4,7.3-44.7,18-57.3,30.6l-0.6,0.6c3.4,3.2,7.1,6,11,8.5l0.9-1c3.5-4.2,7.2-8.3,11-12.1
	C112.3,125.4,124.2,116.4,136.9,109.3L136.9,109.3L136.9,109.3z"/>
<path class="st0" d="M59.1,98.4c1,13.1,5.8,25.1,13.5,34.8l0.3-0.4c7.8-7.7,18-14.8,30.3-20.9c10.8-5.4,23.2-10,36.5-13.6H59.1z"/>
<path class="st0" d="M108.8,44.6c21.9,21.8,49.4,36.2,79.6,41.7c-3.6-32.3-31.1-57.4-64.5-57.4c-8.8,0-17.2,1.8-24.9,4.9
	C102,37.5,105.4,41.2,108.8,44.6z"/>
<path class="st0" d="M79.6,47.3c12.7,12.6,32.9,23.2,57.3,30.6c-12.8-7.2-24.6-16.1-35-26.4c-3.8-3.8-7.5-7.9-11-12.1l-0.9-1
	c-4,2.4-7.7,5.3-11,8.5L79.6,47.3L79.6,47.3z"/>
<path class="st0" d="M108.8,142.5c-3.4,3.4-6.8,7.1-9.9,10.8c7.7,3.2,16.1,4.9,24.9,4.9c33.4,0,60.9-25.1,64.5-57.4
	C158.2,106.3,130.7,120.7,108.8,142.5L108.8,142.5z"/>
<path class="st0" d="M103.2,75.1C90.9,69,80.7,62,72.9,54.3l-0.3-0.3C64.9,63.7,60,75.7,59.1,88.8h80.6
	C126.4,85.1,114,80.5,103.2,75.1L103.2,75.1L103.2,75.1z"/>
<path class="st0" d="M233.5,149.8v-16.3h9.6v2h-7.6v4.6h6.5v2h-6.5v7.8L233.5,149.8L233.5,149.8z"/>
<path class="st0" d="M270.4,150.1c-1.1,0-2.1-0.2-3.1-0.7c-1-0.4-1.8-1-2.6-1.8c-0.7-0.8-1.3-1.7-1.7-2.7c-0.4-1-0.6-2.1-0.6-3.3
	c0-1.2,0.2-2.3,0.6-3.3c0.4-1,1-1.9,1.7-2.7c0.7-0.8,1.6-1.4,2.6-1.8c1-0.4,2-0.7,3.1-0.7c1.1,0,2.2,0.2,3.1,0.7
	c1,0.4,1.8,1,2.6,1.8c0.7,0.8,1.3,1.7,1.7,2.7c0.4,1,0.6,2.1,0.6,3.3c0,1.2-0.2,2.3-0.6,3.3c-0.4,1-1,1.9-1.7,2.7
	c-0.7,0.8-1.6,1.4-2.6,1.8C272.6,149.9,271.6,150.1,270.4,150.1z M270.4,148.1c0.8,0,1.6-0.2,2.4-0.5c0.7-0.3,1.4-0.8,1.9-1.4
	c0.6-0.6,1-1.3,1.3-2.1c0.3-0.8,0.5-1.6,0.5-2.5c0-0.9-0.2-1.7-0.5-2.5c-0.3-0.8-0.8-1.5-1.3-2.1c-0.6-0.6-1.2-1.1-1.9-1.4
	c-0.7-0.3-1.5-0.5-2.4-0.5c-0.8,0-1.6,0.2-2.4,0.5c-0.7,0.3-1.4,0.8-1.9,1.4c-0.6,0.6-1,1.3-1.3,2.1c-0.3,0.8-0.5,1.6-0.5,2.5
	s0.2,1.7,0.5,2.5c0.3,0.8,0.8,1.5,1.3,2.1c0.6,0.6,1.2,1.1,1.9,1.4C268.8,148,269.6,148.1,270.4,148.1z"/>
<path class="st0" d="M305.7,150.1c-1.3,0-2.4-0.3-3.4-1c-1-0.6-1.7-1.5-2.2-2.6c-0.5-1.1-0.8-2.3-0.8-3.6v-9.5h2v9.5
	c0,0.9,0.2,1.8,0.5,2.6c0.3,0.8,0.8,1.4,1.5,1.9c0.7,0.5,1.5,0.7,2.4,0.7c0.9,0,1.8-0.2,2.4-0.7c0.7-0.5,1.1-1.1,1.5-1.9
	c0.3-0.8,0.5-1.6,0.5-2.6v-9.5h2v9.5c0,1-0.1,1.9-0.4,2.8c-0.3,0.9-0.7,1.6-1.3,2.3c-0.6,0.7-1.2,1.2-2,1.5
	C307.6,149.9,306.7,150.1,305.7,150.1L305.7,150.1z"/>
<path class="st0" d="M333.3,149.8v-16.3h2.1l8.1,12.8v-12.8h2v16.3h-2.1l-8.1-12.8v12.8H333.3L333.3,149.8z"/>
<path class="st0" d="M366.9,149.8v-16.3h5.4c1.1,0,2.2,0.2,3.2,0.6c1,0.4,1.8,1,2.6,1.8c0.7,0.8,1.3,1.6,1.8,2.6
	c0.4,1,0.6,2,0.6,3.2c0,1.1-0.2,2.2-0.6,3.2c-0.4,1-1,1.8-1.8,2.6c-0.7,0.8-1.6,1.3-2.6,1.8c-1,0.4-2,0.6-3.2,0.6L366.9,149.8
	L366.9,149.8z M368.9,147.8h3.4c0.9,0,1.7-0.2,2.4-0.5c0.8-0.3,1.4-0.8,2-1.3s1-1.2,1.3-2c0.3-0.7,0.5-1.5,0.5-2.4
	c0-0.9-0.2-1.7-0.5-2.4s-0.8-1.4-1.3-2c-0.6-0.6-1.2-1-2-1.3c-0.7-0.3-1.5-0.5-2.4-0.5h-3.4L368.9,147.8L368.9,147.8z"/>
<path class="st0" d="M405.6,133.5h2.4l5.9,16.3h-2.1l-1.2-3.3H403l-1.2,3.3h-2.1L405.6,133.5z M403.7,144.5h6.2l-3.1-8.5
	L403.7,144.5z"/>
<path class="st0" d="M445.1,133.5v2h-5.4v14.3h-2v-14.3h-5.4v-2H445.1L445.1,133.5z"/>
<path class="st0" d="M466.4,149.8v-16.3h2v16.3H466.4z"/>
<path class="st0" d="M497.7,150.1c-1.1,0-2.1-0.2-3.1-0.7c-1-0.4-1.8-1-2.6-1.8c-0.7-0.8-1.3-1.7-1.7-2.7c-0.4-1-0.6-2.1-0.6-3.3
	c0-1.2,0.2-2.3,0.6-3.3c0.4-1,1-1.9,1.7-2.7c0.7-0.8,1.6-1.4,2.6-1.8c1-0.4,2-0.7,3.1-0.7c1.1,0,2.2,0.2,3.1,0.7
	c1,0.4,1.8,1,2.6,1.8c0.7,0.8,1.3,1.7,1.7,2.7c0.4,1,0.6,2.1,0.6,3.3c0,1.2-0.2,2.3-0.6,3.3c-0.4,1-1,1.9-1.7,2.7
	c-0.7,0.8-1.6,1.4-2.6,1.8C499.8,149.9,498.8,150.1,497.7,150.1z M497.7,148.1c0.8,0,1.6-0.2,2.4-0.5c0.7-0.3,1.4-0.8,1.9-1.4
	c0.6-0.6,1-1.3,1.3-2.1c0.3-0.8,0.5-1.6,0.5-2.5c0-0.9-0.2-1.7-0.5-2.5c-0.3-0.8-0.8-1.5-1.3-2.1c-0.6-0.6-1.2-1.1-1.9-1.4
	c-0.7-0.3-1.5-0.5-2.4-0.5c-0.8,0-1.6,0.2-2.4,0.5c-0.7,0.3-1.4,0.8-1.9,1.4c-0.6,0.6-1,1.3-1.3,2.1c-0.3,0.8-0.5,1.6-0.5,2.5
	s0.2,1.7,0.5,2.5c0.3,0.8,0.8,1.5,1.3,2.1c0.6,0.6,1.2,1.1,1.9,1.4C496.1,148,496.9,148.1,497.7,148.1z"/>
<path class="st0" d="M526.6,149.8v-16.3h2.1l8.1,12.8v-12.8h2v16.3h-2.1l-8.1-12.8v12.8H526.6L526.6,149.8z"/>
</svg>
