<svg width="590" height="187" viewBox="0 0 590 187" fill="none" xmlns="http://www.w3.org/2000/svg">
<path d="M282.519 90.3163C279.002 88.6138 274.509 87.7514 269.177 87.7514H254.004C249.962 87.7514 246.729 86.6264 244.419 84.4589L244.307 84.3464C242.049 81.9689 240.962 79.2914 240.962 76.1639C240.962 73.0364 242.087 70.1489 244.307 67.8089C246.542 65.4314 249.609 64.2314 253.389 64.2314H290.724V56.1239H252.002C247.794 56.1239 244.179 57.0989 240.947 59.0864C237.714 60.9764 235.269 63.4139 233.484 66.5189C231.699 69.6314 230.814 72.9239 230.814 76.6139C230.814 80.9414 231.737 84.6089 233.574 87.5339C235.547 90.5114 238.164 92.7388 241.562 94.3664C245.094 95.8664 249.287 96.6313 254.004 96.6313H269.964C272.649 96.6313 275.042 97.2464 277.067 98.4689C279.137 99.5714 280.674 101.146 281.694 103.149C282.692 105.024 283.157 106.929 283.157 109.164C283.157 111.399 282.609 113.641 281.522 115.681C280.434 117.744 278.762 119.461 276.579 120.811C274.532 122.026 272.027 122.626 269.192 122.626H233.267V130.719H270.902C275.409 130.719 279.212 129.706 282.534 127.629C285.992 125.529 288.587 122.911 290.484 119.574C292.404 116.146 293.319 112.591 293.319 108.691C293.319 104.161 292.359 100.284 290.499 97.2089C288.752 94.1789 286.134 91.9064 282.527 90.3014L282.504 90.3163H282.519Z" fill="white"/>
<path d="M371.664 59.5214C365.837 56.0339 358.997 54.2564 351.347 54.2564C343.697 54.2564 336.872 56.0339 331.007 59.5364C325.157 62.9264 320.462 67.6664 317.042 73.6214C313.622 79.4489 311.889 86.1164 311.889 93.4214C311.889 100.726 313.622 107.469 317.042 113.386C320.462 119.229 325.164 123.969 331.007 127.471C336.587 130.734 343.112 132.451 350.372 132.586H351.347C358.997 132.601 365.822 130.899 371.664 127.494C377.627 123.991 382.322 119.251 385.652 113.431C389.072 107.491 390.804 100.771 390.804 93.4514C390.804 86.1314 389.072 79.2914 385.652 73.4639C382.322 67.6364 377.627 62.9564 371.664 59.5514V59.5289V59.5214ZM380.477 93.4439C380.477 99.2114 379.254 104.514 376.832 109.216C374.409 113.844 370.989 117.571 366.684 120.324C362.394 123.061 357.077 124.501 351.324 124.501C345.572 124.501 340.419 123.099 335.964 120.324C331.659 117.571 328.239 113.829 325.794 109.201C323.387 104.521 322.149 99.2189 322.149 93.4514C322.149 87.6839 323.372 82.4414 325.794 77.8514C328.217 73.1114 331.659 69.3089 335.987 66.5564C340.419 63.7814 345.594 62.4014 351.324 62.4014C357.054 62.4014 362.319 63.8039 366.684 66.5789C371.012 69.3539 374.432 73.1339 376.854 77.8364C379.262 82.4414 380.499 87.6839 380.499 93.4589H380.477V93.4439Z" fill="white"/>
<path d="M466.067 58.4939C460.914 55.7039 454.847 54.2789 447.999 54.2789C441.152 54.2789 435.159 55.7039 429.894 58.5314C424.614 61.2464 420.572 64.9964 417.542 69.9389C414.647 74.8439 413.177 80.6714 413.177 87.2639V130.749H423.332V87.4139C423.332 82.3214 424.479 77.8439 426.737 74.1314C429.069 70.3514 432.152 67.4114 435.894 65.3639C439.689 63.3614 443.754 62.3489 447.999 62.3489C452.244 62.3489 456.272 63.3614 459.954 65.3639C463.772 67.3889 466.854 70.3289 469.127 74.1464C471.474 77.8514 472.659 82.2914 472.659 87.3839V130.719H482.829V87.2339C482.829 80.6639 481.307 74.8139 478.314 69.9089C475.382 64.9439 471.377 61.2164 466.074 58.4639L466.059 58.4864L466.067 58.4939Z" fill="white"/>
<path d="M519.826 56.1163H509.521V130.734H519.826V56.1163Z" fill="white"/>
<path d="M566.897 68.2139C571.427 65.5739 576.557 64.2239 582.182 64.2239H589.892V56.1163H582.654C574.892 56.1163 567.857 57.8039 561.804 61.1189C555.752 64.4189 550.899 68.9638 547.367 74.6038C543.872 80.1088 542.102 86.4388 542.102 93.4288C542.102 100.419 543.872 106.779 547.367 112.404C550.884 117.946 555.752 122.424 561.804 125.739C567.107 128.619 577.487 130.741 582.129 130.741H589.892V122.634H582.182C576.579 122.634 571.427 121.344 566.882 118.794C562.479 116.154 558.894 112.576 556.239 108.174C553.704 103.756 552.407 98.7914 552.407 93.4138C552.407 88.0364 553.704 83.0563 556.262 78.6388C558.894 74.2588 562.487 70.7339 566.904 68.2064V68.2288L566.897 68.2139Z" fill="white"/>
<path d="M112.449 115.996C77.3343 126.541 48.2869 141.924 30.0994 159.946L29.2969 160.749C34.1344 165.324 39.4369 169.419 45.1669 172.899L46.3969 171.391C51.3619 165.324 56.6869 159.466 62.2294 153.946C77.1094 139.119 94.1343 126.286 112.464 115.981L112.442 115.996H112.449Z" fill="white"/>
<path d="M0.586914 100.374C1.98941 119.176 8.97191 136.419 19.9294 150.444L20.4319 149.941C31.6894 138.834 46.3444 128.739 64.0219 119.941C79.5169 112.224 97.3069 105.601 116.484 100.374H0.586914Z" fill="white"/>
<path d="M72.0547 23.0939C103.472 54.3989 143.012 75.0989 186.385 82.9514C181.15 36.5414 141.647 0.436356 93.6547 0.436356C80.9797 0.436356 68.8972 2.96386 57.8647 7.52386C62.3422 12.9164 67.1272 18.1664 72.0547 23.0939Z" fill="white"/>
<path d="M30.0997 26.9264C48.2872 44.9714 77.3347 60.3314 112.45 70.8989C94.1196 60.5789 77.0947 47.7614 62.2147 32.9339C56.6872 27.4289 51.3697 21.5714 46.3822 15.4889L45.1522 13.9814C39.4222 17.4614 34.1197 21.5489 29.3047 26.1239L30.1072 26.9264H30.0997Z" fill="white"/>
<path d="M72.0547 163.779C67.1047 168.706 62.3272 173.956 57.8647 179.349C68.8822 183.909 80.9797 186.436 93.6547 186.436C141.655 186.436 181.157 150.331 186.4 103.906C143.035 111.759 103.495 132.459 72.0697 163.764L72.0547 163.779Z" fill="white"/>
<path d="M64.0219 66.9314C46.3444 58.1339 31.6894 48.0313 20.4319 36.9313L19.9294 36.4288C8.97191 50.4538 1.98941 67.6963 0.586914 86.4988H116.462C97.2919 81.2713 79.5169 74.6488 63.9994 66.9088L64.0144 66.9314H64.0219Z" fill="white"/>
<path d="M233.312 170.761V151.734H244.472V154.014H235.599V159.421H243.167V161.701H235.599V170.754H233.319L233.312 170.761Z" fill="white"/>
<path d="M276.497 171.114C275.207 171.114 273.999 170.859 272.867 170.349C271.734 169.839 270.737 169.126 269.874 168.219C269.012 167.311 268.337 166.261 267.849 165.076C267.362 163.884 267.114 162.609 267.114 161.251C267.114 159.894 267.362 158.619 267.849 157.426C268.337 156.234 269.012 155.184 269.874 154.284C270.737 153.376 271.734 152.671 272.867 152.154C273.999 151.644 275.207 151.389 276.497 151.389C277.787 151.389 279.009 151.644 280.142 152.154C281.274 152.664 282.272 153.376 283.134 154.284C283.997 155.191 284.664 156.241 285.152 157.426C285.639 158.619 285.879 159.894 285.879 161.251C285.879 162.609 285.639 163.884 285.152 165.076C284.664 166.269 283.997 167.319 283.134 168.219C282.272 169.126 281.274 169.831 280.142 170.349C279.009 170.866 277.794 171.114 276.497 171.114ZM276.497 168.826C277.487 168.826 278.409 168.624 279.264 168.226C280.119 167.829 280.869 167.274 281.522 166.576C282.167 165.871 282.677 165.069 283.044 164.154C283.412 163.246 283.592 162.271 283.592 161.236C283.592 160.201 283.404 159.226 283.037 158.311C282.662 157.389 282.159 156.586 281.507 155.889C280.862 155.199 280.104 154.651 279.249 154.254C278.394 153.856 277.479 153.654 276.497 153.654C275.514 153.654 274.584 153.856 273.729 154.254C272.874 154.651 272.124 155.206 271.472 155.904C270.827 156.609 270.317 157.411 269.949 158.326C269.582 159.234 269.402 160.209 269.402 161.244C269.402 162.279 269.589 163.261 269.957 164.176C270.324 165.091 270.834 165.901 271.487 166.599C272.132 167.296 272.889 167.844 273.744 168.234C274.599 168.624 275.522 168.826 276.497 168.826Z" fill="white"/>
<path d="M317.664 171.114C316.142 171.114 314.822 170.746 313.704 169.996C312.587 169.254 311.724 168.256 311.124 166.996C310.524 165.744 310.217 164.349 310.217 162.819V151.726H312.497V162.819C312.497 163.906 312.699 164.904 313.104 165.819C313.509 166.734 314.094 167.461 314.859 168.009C315.624 168.549 316.562 168.826 317.664 168.826C318.767 168.826 319.727 168.549 320.492 168.001C321.257 167.454 321.834 166.726 322.224 165.811C322.614 164.904 322.817 163.899 322.817 162.811V151.719H325.097V162.811C325.097 163.959 324.924 165.039 324.579 166.036C324.234 167.034 323.739 167.919 323.094 168.676C322.449 169.441 321.662 170.034 320.747 170.454C319.832 170.881 318.804 171.091 317.664 171.091V171.114Z" fill="white"/>
<path d="M349.921 170.761V151.734H352.396L361.899 166.629V151.734H364.179V170.761H361.719L352.209 155.866V170.761H349.929H349.921Z" fill="white"/>
<path d="M389.184 170.761V151.734H395.477C396.789 151.734 398.019 151.981 399.174 152.476C400.322 152.971 401.334 153.654 402.204 154.531C403.074 155.409 403.757 156.414 404.252 157.561C404.747 158.709 404.994 159.939 404.994 161.251C404.994 162.564 404.747 163.794 404.252 164.941C403.757 166.089 403.074 167.101 402.204 167.971C401.334 168.849 400.322 169.531 399.174 170.026C398.027 170.521 396.789 170.769 395.477 170.769H389.184V170.761ZM391.464 168.474H395.477C396.474 168.474 397.412 168.286 398.282 167.911C399.159 167.536 399.924 167.019 400.584 166.359C401.244 165.699 401.762 164.926 402.144 164.056C402.527 163.186 402.707 162.249 402.707 161.251C402.707 160.254 402.519 159.316 402.144 158.446C401.769 157.576 401.244 156.804 400.584 156.144C399.924 155.484 399.152 154.966 398.282 154.591C397.412 154.216 396.482 154.029 395.484 154.029H391.472V168.489L391.464 168.474Z" fill="white"/>
<path d="M434.364 151.734H437.124L444.039 170.761H441.617L440.207 166.876H431.282L429.879 170.761H427.449L434.364 151.734ZM432.122 164.589H439.367L435.737 154.651L432.122 164.589Z" fill="white"/>
<path d="M480.474 151.734V154.014H474.144V170.754H471.864V154.014H465.549V151.734H480.481H480.474Z" fill="white"/>
<path d="M505.344 170.761V151.734H507.624V170.761H505.344Z" fill="white"/>
<path d="M541.869 171.114C540.579 171.114 539.371 170.859 538.239 170.349C537.106 169.839 536.109 169.126 535.246 168.219C534.384 167.311 533.709 166.261 533.221 165.076C532.734 163.884 532.486 162.609 532.486 161.251C532.486 159.894 532.734 158.619 533.221 157.426C533.709 156.234 534.384 155.184 535.246 154.284C536.109 153.376 537.106 152.671 538.239 152.154C539.371 151.644 540.579 151.389 541.869 151.389C543.159 151.389 544.381 151.644 545.514 152.154C546.646 152.664 547.644 153.376 548.506 154.284C549.369 155.191 550.036 156.241 550.524 157.426C551.011 158.619 551.251 159.894 551.251 161.251C551.251 162.609 551.011 163.884 550.524 165.076C550.036 166.269 549.369 167.319 548.506 168.219C547.644 169.126 546.646 169.831 545.514 170.349C544.381 170.866 543.166 171.114 541.869 171.114ZM541.869 168.826C542.859 168.826 543.781 168.624 544.636 168.226C545.491 167.829 546.241 167.274 546.894 166.576C547.539 165.871 548.049 165.069 548.416 164.154C548.784 163.246 548.964 162.271 548.964 161.236C548.964 160.201 548.776 159.226 548.409 158.311C548.034 157.389 547.531 156.586 546.879 155.889C546.234 155.199 545.476 154.651 544.621 154.254C543.766 153.856 542.851 153.654 541.869 153.654C540.886 153.654 539.956 153.856 539.101 154.254C538.246 154.651 537.496 155.206 536.844 155.904C536.199 156.609 535.689 157.411 535.321 158.326C534.954 159.234 534.774 160.209 534.774 161.244C534.774 162.279 534.961 163.261 535.329 164.176C535.696 165.091 536.206 165.901 536.859 166.599C537.504 167.296 538.261 167.844 539.116 168.234C539.971 168.624 540.894 168.826 541.869 168.826Z" fill="white"/>
<path d="M575.664 170.761V151.734H578.139L587.642 166.629V151.734H589.922V170.761H587.462L577.952 155.866V170.761H575.672H575.664Z" fill="white"/>
</svg>
