<?xml version="1.0" encoding="utf-8"?>
<!-- Generator: Adobe Illustrator 25.2.1, SVG Export Plug-In . SVG Version: 6.00 Build 0)  -->
<svg version="1.1" id="Layer_1" xmlns="http://www.w3.org/2000/svg" xmlns:xlink="http://www.w3.org/1999/xlink" x="0px" y="0px"
	 viewBox="0 0 1200 600" style="enable-background:new 0 0 1200 600;" xml:space="preserve">
<style type="text/css">
	.st0{fill:#FAFAFA;}
</style>
<g>
	<path class="st0" d="M664.1,373.6c-4.5,6.4-10.5,11.2-17.9,14.3c-7.4,2.9-15.7,4.4-24.9,4.4c-7.3,0-13.9-0.9-20-2.6
		c-5.9-1.7-11.1-4.3-15.6-7.8c-4.5-3.6-8-8-10.6-13.2c-2.6-5.4-3.9-11.4-3.9-18.1c0-7.4,1.5-13.7,4.4-18.9c2.9-5.4,6.9-9.7,11.9-13
		c5.2-3.3,11.2-5.7,18.1-7.3c6.9-1.7,14.2-2.6,21.8-2.6h35c0-10-2.2-17.8-6.7-23.3c-4.5-5.5-12.4-8.4-23.6-8.6
		c-6.6,0-12.3,1.1-17.1,3.4c-4.7,2.2-7.8,6-9.3,11.2h-30.3c1-7.3,3.4-13.4,7-18.4c3.8-5,8.3-9.2,13.5-12.4c5.4-3.3,11.2-5.6,17.6-7
		c6.6-1.4,13.1-2.1,19.7-2.1c8.5,0,16.3,1.1,23.6,3.4c7.3,2.2,13.6,6,18.9,11.4c6,6.2,10.1,13.7,12.2,22.3
		c2.1,8.6,3.1,18.1,3.1,28.3v73.6h-25.7L664.1,373.6z M662.5,329.8H634c-5,0-10,0.4-15,1.3c-5,0.7-9.3,2.5-13,5.4
		c-3.5,2.8-5.2,6.8-5.2,12.2c0,6.6,2.3,11.6,7,15c4.8,3.3,10.7,4.9,17.6,4.9c5.4,0,10.3-0.7,14.8-2.1c4.7-1.4,8.6-3.6,11.9-6.7
		c3.3-3.3,5.8-7.3,7.5-12.2C661.6,342.6,662.5,336.7,662.5,329.8z"/>
	<path class="st0" d="M739.6,197c5.4,0,9.8,1.6,13.2,4.9c3.6,3.3,5.4,7.8,5.4,13.5c0,5.5-1.8,9.9-5.4,13.2
		c-3.5,3.3-7.9,4.9-13.2,4.9c-5.7,0-10.3-1.6-13.7-4.9c-3.5-3.3-5.2-7.7-5.2-13.2c0-5.7,1.7-10.2,5.2-13.5
		C729.4,198.6,733.9,197,739.6,197z M724.6,390.4V253.8h29.6v136.7H724.6z"/>
	<path class="st0" d="M989.1,251.5c10.9,0,20.5,1.7,28.8,5.2c8.3,3.5,15.3,8.3,21,14.5c5.9,6,10.3,13.4,13.2,22
		c2.9,8.6,4.4,18.2,4.4,28.8c0,10.7-1.5,20.4-4.4,29c-2.8,8.5-7,15.8-12.7,22c-5.7,6.2-12.8,11-21.3,14.3c-8.3,3.3-18,4.9-29,4.9
		c-10.9,0-20.5-1.6-28.8-4.9c-8.3-3.5-15.3-8.2-21-14.3c-5.5-6.2-9.8-13.7-12.7-22.3c-2.8-8.6-4.1-18.2-4.1-28.8
		c0-10.5,1.4-20.1,4.1-28.8c2.9-8.6,7.3-16,13-22c5.7-6.2,12.7-11.1,21-14.5C968.8,253.2,978.4,251.5,989.1,251.5z M989.1,366.6
		c6.7,0,12.4-1.1,17.1-3.4c4.8-2.4,8.7-5.6,11.7-9.6c3.1-4,5.4-8.6,6.7-14c1.6-5.4,2.3-11.2,2.3-17.4c0-6.2-0.8-12-2.3-17.4
		c-1.4-5.5-3.6-10.3-6.7-14.3c-2.9-4-6.8-7.1-11.7-9.3c-4.7-2.2-10.4-3.4-17.1-3.4c-6.6,0-12.2,1.1-16.9,3.4
		c-4.7,2.2-8.6,5.4-11.7,9.3c-3.1,4-5.4,8.7-7,14.3c-1.4,5.4-2.1,11.2-2.1,17.4c0,6.2,0.7,12,2.1,17.4c1.6,5.4,3.8,10,6.7,14
		c3.1,4,7,7.2,11.7,9.6C976.8,365.5,982.5,366.6,989.1,366.6z"/>
	<path class="st0" d="M838.9,309.5h-21.3v-97h-29.3v177.9h29.3v-55.2h23.1l36,55.2H911l-46.7-71.6l43-65.1h-33.2L838.9,309.5z"/>
	<path class="st0" d="M551.3,253.4h-35v-40.9h-9l-42.5,57.8v7.5h21.8v67.6c0,16,3.6,27.5,10.8,34.5c7.4,7,19.6,10.5,36.6,10.5h16.3
		v-25.8h-13.7c-7.9,0-13.2-1.9-16.1-5.8c-2.8-3.9-4.2-9.7-4.2-17.6v-63.4h35V253.4z"/>
	<path class="st0" d="M426,377.5l-47.1-64c-5.1-7-12.7-11.1-20.8-12c-1.8-0.2-3.5-1.3-4.4-2.9c-0.9-1.6-1-3.6-0.3-5.3
		c3.2-7.4,3.4-16.1-0.1-24l-31.9-72.8c-4.7-10.8-15.4-17.8-27.2-17.8s-22.5,7-27.2,17.8l-31.9,72.8c-3.5,7.9-3.3,16.6,0,24
		c0.7,1.7,0.6,3.7-0.3,5.3c-0.9,1.6-2.6,2.7-4.4,2.9c-8.1,0.9-15.6,5.1-20.8,12l-47.1,64c-7,9.5-7.7,22.2-1.8,32.4
		c5.9,10.2,17.3,16,29,14.7l79-8.8c8.6-0.9,16-5.4,20.8-12c1.1-1.5,2.9-2.4,4.7-2.4s3.6,0.9,4.7,2.4c4.8,6.5,12.2,11,20.8,12l79,8.8
		c11.7,1.3,23.1-4.4,29-14.7C433.7,399.8,433,387,426,377.5z M255.8,278.5l31.9-72.9c1.1-2.6,3.7-4.3,6.6-4.3c2.8,0,5.4,1.7,6.6,4.3
		l31.9,72.9c1,2.3,0.8,5-0.6,7.1c-1.4,2.1-3.7,3.4-6.2,3.4h-63.3c-2.5,0-4.9-1.3-6.2-3.4C255,283.4,254.8,280.8,255.8,278.5
		L255.8,278.5z M272.2,389.4c-1.1,2.2-3.3,3.8-5.8,4l-79.1,8.8c-2.8,0.3-5.6-1.1-7-3.5c-1.4-2.5-1.2-5.5,0.4-7.8l47.2-64.1
		c1.5-2,3.9-3.2,6.4-3c2.5,0.1,4.8,1.5,6,3.7l0,0.1l31.6,54.7l0.1,0.1C273.3,384.6,273.4,387.2,272.2,389.4L272.2,389.4z
		 M300.8,364.7c-1.3,2.3-3.8,3.8-6.5,3.8c-2.7,0-5.1-1.4-6.5-3.7l-24.3-42c-1.3-2.3-1.3-5.2,0-7.5c1.3-2.3,3.8-3.8,6.5-3.8h48.5
		c2.7,0,5.1,1.4,6.5,3.7s1.3,5.2,0,7.5L300.8,364.7z M408.3,398.7c-1.4,2.5-4.2,3.9-7,3.5l-79.1-8.8c-2.5-0.3-4.7-1.8-5.8-4
		c-1.1-2.2-1.1-4.9,0.2-7.1l0.1-0.1l31.6-54.7l0-0.1c1.3-2.2,3.5-3.6,6-3.7c2.5-0.1,4.9,1,6.4,3l47.2,64.1
		C409.5,393.2,409.7,396.3,408.3,398.7L408.3,398.7z"/>
</g>
</svg>
