<svg xmlns="http://www.w3.org/2000/svg" xmlns:xlink="http://www.w3.org/1999/xlink" width="1200" zoomAndPan="magnify" viewBox="0 0 900 449.999984" height="600" preserveAspectRatio="xMidYMid meet" version="1.0"><path fill="#fafafa" d="M 505.578125 289.570312 C 501.621094 295.203125 496.371094 299.390625 489.824219 302.128906 C 483.277344 304.71875 475.972656 306.011719 467.902344 306.011719 C 461.511719 306.011719 455.652344 305.25 450.324219 303.730469 C 445.148438 302.207031 440.582031 299.921875 436.625 296.878906 C 432.664062 293.679688 429.546875 289.800781 427.261719 285.230469 C 424.976562 280.511719 423.835938 275.183594 423.835938 269.246094 C 423.835938 262.699219 425.128906 257.144531 427.71875 252.574219 C 430.304688 247.855469 433.808594 244.050781 438.222656 241.15625 C 442.789062 238.265625 448.117188 236.132812 454.203125 234.761719 C 460.292969 233.242188 466.6875 232.480469 473.382812 232.480469 L 504.210938 232.480469 C 504.210938 223.648438 502.230469 216.796875 498.273438 211.925781 C 494.316406 207.054688 487.390625 204.542969 477.496094 204.390625 C 471.710938 204.390625 466.6875 205.378906 462.425781 207.359375 C 458.316406 209.339844 455.574219 212.613281 454.203125 217.179688 L 427.492188 217.179688 C 428.402344 210.785156 430.457031 205.378906 433.65625 200.964844 C 437.003906 196.550781 440.960938 192.894531 445.527344 190.003906 C 450.246094 187.109375 455.421875 185.054688 461.054688 183.835938 C 466.839844 182.621094 472.625 182.011719 478.410156 182.011719 C 485.867188 182.011719 492.792969 183 499.1875 184.980469 C 505.578125 186.957031 511.136719 190.308594 515.855469 195.027344 C 521.183594 200.507812 524.757812 207.054688 526.585938 214.667969 C 528.414062 222.277344 529.328125 230.578125 529.328125 239.558594 L 529.328125 304.414062 L 506.722656 304.414062 Z M 504.210938 250.976562 L 479.09375 250.976562 C 474.679688 250.976562 470.265625 251.359375 465.851562 252.117188 C 461.433594 252.726562 457.628906 254.328125 454.433594 256.914062 C 451.390625 259.351562 449.867188 262.929688 449.867188 267.648438 C 449.867188 273.433594 451.921875 277.847656 456.03125 280.894531 C 460.292969 283.785156 465.46875 285.230469 471.558594 285.230469 C 476.277344 285.230469 480.617188 284.621094 484.574219 283.40625 C 488.683594 282.1875 492.183594 280.207031 495.078125 277.46875 C 497.96875 274.574219 500.175781 270.996094 501.699219 266.734375 C 503.371094 262.320312 504.210938 257.066406 504.210938 250.976562 Z M 504.210938 250.976562 " fill-opacity="1" fill-rule="nonzero"/><path fill="#fafafa" d="M 572.117188 134.054688 C 576.835938 134.054688 580.71875 135.5 583.761719 138.390625 C 586.957031 141.285156 588.558594 145.242188 588.558594 150.265625 C 588.558594 155.140625 586.957031 159.023438 583.761719 161.914062 C 580.71875 164.808594 576.835938 166.253906 572.117188 166.253906 C 567.09375 166.253906 563.0625 164.808594 560.015625 161.914062 C 556.972656 159.023438 555.449219 155.140625 555.449219 150.265625 C 555.449219 145.242188 556.972656 141.285156 560.015625 138.390625 C 563.0625 135.5 567.09375 134.054688 572.117188 134.054688 Z M 558.875 304.414062 L 558.875 184.066406 L 584.90625 184.066406 L 584.90625 304.414062 Z M 558.875 304.414062 " fill-opacity="1" fill-rule="nonzero"/><path fill="#fafafa" d="M 791.78125 182.011719 C 801.371094 182.011719 809.820312 183.53125 817.128906 186.578125 C 824.433594 189.621094 830.601562 193.886719 835.621094 199.367188 C 840.796875 204.695312 844.679688 211.164062 847.269531 218.777344 C 849.855469 226.390625 851.148438 234.839844 851.148438 244.125 C 851.148438 253.566406 849.855469 262.089844 847.269531 269.703125 C 844.832031 277.164062 841.101562 283.632812 836.078125 289.113281 C 831.054688 294.59375 824.816406 298.78125 817.355469 301.671875 C 810.050781 304.566406 801.523438 306.011719 791.78125 306.011719 C 782.195312 306.011719 773.746094 304.566406 766.4375 301.671875 C 759.132812 298.628906 752.96875 294.441406 747.941406 289.113281 C 743.070312 283.632812 739.34375 277.085938 736.753906 269.476562 C 734.320312 261.863281 733.101562 253.414062 733.101562 244.125 C 733.101562 234.839844 734.320312 226.390625 736.753906 218.777344 C 739.34375 211.164062 743.148438 204.695312 748.171875 199.367188 C 753.195312 193.886719 759.359375 189.621094 766.667969 186.578125 C 773.972656 183.53125 782.347656 182.011719 791.78125 182.011719 Z M 791.78125 283.40625 C 797.71875 283.40625 802.742188 282.414062 806.851562 280.4375 C 811.117188 278.304688 814.539062 275.488281 817.128906 271.988281 C 819.867188 268.484375 821.847656 264.375 823.066406 259.65625 C 824.433594 254.933594 825.121094 249.835938 825.121094 244.355469 C 825.121094 238.875 824.433594 233.773438 823.066406 229.054688 C 821.847656 224.183594 819.867188 219.996094 817.128906 216.492188 C 814.539062 212.992188 811.117188 210.25 806.851562 208.273438 C 802.742188 206.292969 797.71875 205.304688 791.78125 205.304688 C 785.996094 205.304688 781.050781 206.292969 776.941406 208.273438 C 772.832031 210.25 769.40625 212.992188 766.667969 216.492188 C 763.925781 219.996094 761.871094 224.183594 760.5 229.054688 C 759.285156 233.773438 758.675781 238.875 758.675781 244.355469 C 758.675781 249.835938 759.285156 254.933594 760.5 259.65625 C 761.871094 264.375 763.847656 268.484375 766.4375 271.988281 C 769.179688 275.488281 772.601562 278.304688 776.710938 280.4375 C 780.976562 282.414062 785.996094 283.40625 791.78125 283.40625 Z M 791.78125 283.40625 " fill-opacity="1" fill-rule="nonzero"/><path fill="#fafafa" d="M 659.554688 233.164062 L 640.828125 233.164062 L 640.828125 147.734375 L 615.027344 147.734375 L 615.027344 304.414062 L 640.828125 304.414062 L 640.828125 255.773438 L 661.152344 255.773438 L 692.890625 304.414062 L 723.03125 304.414062 L 681.929688 241.386719 L 719.832031 184.066406 L 690.605469 184.066406 Z M 659.554688 233.164062 " fill-opacity="1" fill-rule="nonzero"/><path fill="#fafafa" d="M 406.234375 183.722656 L 375.414062 183.722656 L 375.414062 147.734375 L 367.449219 147.734375 L 329.992188 198.632812 L 329.992188 205.214844 L 349.226562 205.214844 L 349.226562 264.78125 C 349.226562 278.839844 352.394531 288.960938 358.726562 295.144531 C 365.21875 301.324219 375.957031 304.414062 390.941406 304.414062 L 405.308594 304.414062 L 405.308594 281.699219 L 393.257812 281.699219 C 386.304688 281.699219 381.59375 280 379.121094 276.601562 C 376.648438 273.203125 375.414062 268.027344 375.414062 261.074219 L 375.414062 205.214844 L 406.234375 205.214844 Z M 406.234375 183.722656 " fill-opacity="1" fill-rule="nonzero"/><path fill="#fafafa" d="M 295.867188 293.046875 L 254.378906 236.671875 C 249.871094 230.546875 243.199219 226.878906 236.089844 226.066406 C 234.472656 225.878906 233.027344 224.941406 232.21875 223.527344 C 231.394531 222.109375 231.308594 220.390625 231.960938 218.886719 C 234.804688 212.328125 234.976562 204.714844 231.914062 197.75 L 203.847656 133.632812 C 199.6875 124.113281 190.285156 117.972656 179.898438 117.972656 C 169.511719 117.972656 160.105469 124.125 155.945312 133.632812 L 127.878906 197.75 C 124.832031 204.714844 124.988281 212.328125 127.835938 218.886719 C 128.484375 220.390625 128.386719 222.109375 127.574219 223.527344 C 126.753906 224.941406 125.324219 225.878906 123.703125 226.066406 C 116.597656 226.878906 109.921875 230.546875 105.417969 236.671875 L 63.929688 293.046875 C 57.773438 301.414062 57.152344 312.625 62.339844 321.625 C 67.539062 330.609375 77.566406 335.683594 87.878906 334.542969 L 157.433594 326.796875 C 164.988281 325.960938 171.503906 322.015625 175.75 316.265625 C 176.71875 314.949219 178.265625 314.167969 179.898438 314.167969 C 181.53125 314.167969 183.0625 314.949219 184.042969 316.265625 C 188.289062 322.015625 194.804688 325.960938 202.359375 326.796875 L 271.914062 334.542969 C 282.230469 335.695312 292.253906 330.625 297.457031 321.625 C 302.640625 312.625 302.019531 301.414062 295.867188 293.046875 Z M 146.023438 205.796875 L 174.132812 141.609375 C 175.144531 139.3125 177.414062 137.824219 179.910156 137.824219 C 182.410156 137.824219 184.679688 139.3125 185.691406 141.609375 L 213.800781 205.796875 C 214.683594 207.820312 214.496094 210.160156 213.28125 212.011719 C 212.066406 213.859375 210.015625 214.972656 207.792969 214.972656 L 152.019531 214.972656 C 149.808594 214.972656 147.742188 213.859375 146.527344 212.011719 C 145.316406 210.160156 145.128906 207.820312 146.007812 205.796875 Z M 160.453125 303.523438 C 159.457031 305.5 157.523438 306.832031 155.324219 307.074219 L 85.699219 314.820312 C 83.214844 315.09375 80.785156 313.882812 79.53125 311.714844 C 78.273438 309.546875 78.433594 306.847656 79.921875 304.820312 L 121.449219 248.390625 C 122.765625 246.613281 124.875 245.601562 127.085938 245.730469 C 129.292969 245.847656 131.289062 247.074219 132.402344 248.996094 L 132.445312 249.070312 L 160.25 297.238281 L 160.296875 297.308594 C 161.40625 299.230469 161.464844 301.570312 160.46875 303.535156 Z M 185.617188 281.734375 C 184.433594 283.773438 182.265625 285.042969 179.898438 285.042969 C 177.542969 285.042969 175.363281 283.785156 174.175781 281.75 L 152.8125 244.75 C 151.628906 242.710938 151.628906 240.183594 152.8125 238.148438 C 153.996094 236.109375 156.164062 234.839844 158.53125 234.839844 L 201.25 234.839844 C 203.601562 234.839844 205.785156 236.082031 206.96875 238.132812 C 208.152344 240.183594 208.152344 242.699219 206.96875 244.734375 Z M 280.28125 311.714844 C 279.023438 313.882812 276.609375 315.109375 274.109375 314.835938 L 204.484375 307.089844 C 202.289062 306.847656 200.351562 305.515625 199.355469 303.535156 C 198.359375 301.558594 198.417969 299.21875 199.527344 297.308594 L 199.574219 297.238281 L 227.378906 249.070312 L 227.421875 248.996094 C 228.535156 247.074219 230.527344 245.847656 232.738281 245.730469 C 234.949219 245.617188 237.058594 246.613281 238.371094 248.390625 L 279.902344 304.820312 C 281.394531 306.847656 281.535156 309.546875 280.292969 311.714844 Z M 280.28125 311.714844 " fill-opacity="1" fill-rule="nonzero"/></svg>