<svg version="1.1" id="Layer_1" xmlns="http://www.w3.org/2000/svg" xmlns:xlink="http://www.w3.org/1999/xlink" x="0px" y="0px"
	 width="24" height="24" viewBox="0 0 200 200" enable-background="new 0 0 200 200" xml:space="preserve">
<path fill="#010000" opacity="1.000000" stroke="none" 
	d="
M131.000000,201.000000 
	C87.333336,201.000000 44.166672,201.000000 1.000006,201.000000 
	C1.000004,134.333344 1.000004,67.666679 1.000002,1.000015 
	C67.666656,1.000010 134.333313,1.000010 200.999969,1.000005 
	C200.999985,67.666649 200.999985,134.333298 201.000000,200.999969 
	C177.833328,201.000000 154.666672,201.000000 131.000000,201.000000 
M80.731224,57.925034 
	C81.143158,57.524521 81.555099,57.124008 82.546043,56.528675 
	C83.706314,55.707638 84.866592,54.886597 86.668007,54.017250 
	C87.442688,53.659798 88.217361,53.302345 89.822327,52.977547 
	C91.199722,52.846069 92.577118,52.714592 94.675148,52.809158 
	C95.663864,52.988758 96.652580,53.168362 98.130379,53.803322 
	C100.073044,54.922039 102.015701,56.040756 104.292900,57.721947 
	C107.508362,60.659580 110.723816,63.597214 114.295311,67.012047 
	C116.838112,69.447540 119.380920,71.883041 122.266830,74.858864 
	C124.490013,76.988976 126.713203,79.119080 129.284073,81.793007 
	C131.514297,83.931061 133.744507,86.069115 136.315475,88.735596 
	C137.867828,89.772598 139.420197,90.809601 141.764740,91.922470 
	C142.823151,91.902374 143.881561,91.882278 145.543396,91.635956 
	C146.715851,90.430412 147.888321,89.224869 149.703964,87.764359 
	C150.157593,85.575409 151.421906,83.172607 150.911560,81.237938 
	C149.430908,75.624931 145.777374,71.314232 140.643890,67.442459 
	C138.099609,64.956367 135.555344,62.470276 132.659805,59.426262 
	C130.436462,57.303585 128.213135,55.180908 125.442055,52.696152 
	C123.964134,51.125446 122.486214,49.554737 120.655067,47.425243 
	C118.437294,45.615044 116.219521,43.804848 113.548096,41.496738 
	C111.737404,40.561192 109.926704,39.625645 107.582909,38.277969 
	C106.066414,37.807529 104.549911,37.337090 102.337929,36.540054 
	C100.548798,36.418777 98.759666,36.297504 96.280846,36.090878 
	C95.154579,36.257816 94.028313,36.424755 92.156761,36.648472 
	C90.779556,37.121761 89.402351,37.595051 87.371162,38.122826 
	C86.239815,38.729092 85.108467,39.335358 83.375015,40.046146 
	C82.541008,40.590611 81.707001,41.135078 80.296890,41.899078 
	C79.508224,42.523769 78.719559,43.148460 77.371666,43.957165 
	C76.497742,44.711830 75.623810,45.466496 74.143700,46.443825 
	C73.382889,47.186634 72.622078,47.929440 71.245308,48.946964 
	C69.714043,50.572182 68.182785,52.197399 66.159393,54.044270 
	C65.743172,54.610401 65.326950,55.176533 64.361427,56.056564 
	C63.499737,57.225090 62.638050,58.393616 61.222542,59.941135 
	C60.401203,61.261162 59.579861,62.581192 58.213943,64.263405 
	C57.697048,65.461662 57.180153,66.659927 56.137268,68.338699 
	C55.724529,70.212181 55.311790,72.085670 54.470886,74.662148 
	C51.925293,88.340302 59.753681,97.139099 69.151375,105.911354 
	C71.738861,108.356735 74.326347,110.802109 77.162819,113.840607 
	C79.041023,115.596725 80.919228,117.352852 83.097404,119.713760 
	C86.052444,122.518669 89.007477,125.323578 92.201248,128.723297 
	C93.674370,129.880768 95.147491,131.038239 97.086288,132.720383 
	C99.059059,132.815781 101.031830,132.911194 103.700180,132.992416 
	C105.480995,131.358917 107.261818,129.725403 109.603424,127.679657 
	C111.979042,122.047501 109.049583,118.412445 104.568916,114.644844 
	C100.370338,110.524689 96.171753,106.404533 91.589966,101.709976 
	C89.096947,99.371567 86.603920,97.033150 83.852592,94.122955 
	C82.317780,92.714790 80.782959,91.306625 78.959282,89.276962 
	C74.548058,84.698891 70.768814,79.800224 70.954475,72.315491 
	C71.254608,70.879959 71.554741,69.444427 72.081474,67.427895 
	C72.385612,66.912216 72.689758,66.396545 73.629585,65.726799 
	C75.114510,63.828201 76.599434,61.929604 78.637794,59.832050 
	C79.150269,59.248600 79.662735,58.665150 80.731224,57.925034 
M117.843002,165.382599 
	C119.327057,164.314529 120.811119,163.246445 122.890488,161.973145 
	C123.988457,161.015213 125.086426,160.057266 126.731644,158.878159 
	C127.262703,158.312637 127.793770,157.747116 128.849426,156.953476 
	C129.625748,156.129730 130.402054,155.305984 131.711060,154.057846 
	C133.164642,152.389282 134.618225,150.720718 136.596054,148.804688 
	C137.109299,148.002838 137.622543,147.201004 138.696091,146.037430 
	C139.691071,144.356995 140.686066,142.676559 142.113235,140.434250 
	C142.548630,139.351624 142.984024,138.268997 143.848190,136.608856 
	C149.128159,122.535774 143.001221,112.138206 132.747253,102.389297 
	C131.736755,101.595482 130.726257,100.801666 129.542145,99.397430 
	C127.669930,97.656685 125.797722,95.915939 123.601379,93.593025 
	C122.079025,92.360207 120.556679,91.127396 118.877281,89.297119 
	C117.921150,88.585579 116.965012,87.874046 115.420113,86.685600 
	C113.953400,86.541946 112.486694,86.398293 110.375412,86.188835 
	C109.250488,86.793983 108.125565,87.399132 106.416687,88.091408 
	C105.925163,88.685356 105.433632,89.279297 104.386147,90.297981 
	C101.113304,96.277794 101.823723,99.052078 108.218742,104.726822 
	C109.802086,106.176590 111.385422,107.626358 113.236023,109.667038 
	C114.823502,111.113007 116.410980,112.558968 118.266136,114.586380 
	C119.519287,115.726479 120.772438,116.866577 122.279083,118.616531 
	C123.811874,120.522018 125.344666,122.427505 126.988380,125.054077 
	C127.628410,128.356827 128.268448,131.659561 128.484879,135.454575 
	C127.946587,136.864777 127.408295,138.274979 126.331375,140.091705 
	C124.849358,142.046936 123.367340,144.002167 121.418053,146.047287 
	C121.119240,146.221100 120.954247,146.480148 120.356453,147.126129 
	C119.254089,148.128510 118.151726,149.130905 116.463348,150.284790 
	C115.646942,150.868561 114.830536,151.452332 113.370529,152.090668 
	C112.588768,152.448425 111.807007,152.806183 110.302231,153.162354 
	C108.873505,153.393845 107.444771,153.625336 105.401611,153.553162 
	C104.274811,153.340927 103.148010,153.128677 101.574928,152.453201 
	C100.048546,151.639328 98.522163,150.825455 96.587555,149.523056 
	C95.374207,148.687485 94.160851,147.851929 92.725090,146.388718 
	C90.449287,144.271240 88.173485,142.153748 85.656166,139.420578 
	C83.379829,137.300507 81.103493,135.180420 78.572723,132.458847 
	C76.667763,130.659592 74.762802,128.860352 72.577728,126.462662 
	C70.067299,124.236397 67.556870,122.010132 64.863083,119.149254 
	C62.571659,117.749245 60.280231,116.349228 57.481224,114.599144 
	C55.985367,115.065285 54.489506,115.531425 52.358356,116.219467 
	C46.569351,121.753868 46.212990,124.654060 51.170322,130.484528 
	C53.500996,133.225708 56.365669,135.512833 59.343365,138.568039 
	C61.568207,141.038467 63.793049,143.508881 66.476463,146.450790 
	C68.271896,147.991272 70.067329,149.531738 72.075760,151.717316 
	C74.397285,154.107681 76.718819,156.498047 79.380302,159.466156 
	C81.262222,160.942520 83.144150,162.418869 85.549606,164.325470 
	C87.329582,165.300140 89.109558,166.274826 91.450180,167.663239 
	C93.259247,168.220398 95.068314,168.777557 97.451469,169.630280 
	C98.303055,169.725433 99.154648,169.820572 100.862335,170.029404 
	C102.582420,169.958954 104.302513,169.888504 106.661591,169.842590 
	C107.439758,169.549026 108.217918,169.255447 109.681412,168.929703 
	C111.142288,168.360428 112.603157,167.791153 114.650063,167.108017 
	C115.496407,166.614609 116.342758,166.121216 117.843002,165.382599 
M102.270622,71.305237 
	C98.733200,68.273552 94.531746,67.021416 90.988762,70.280251 
	C88.724869,72.362579 86.555656,76.261292 86.919006,79.004601 
	C87.282448,81.748581 90.398590,84.940536 93.127495,86.352814 
	C96.532631,88.115059 100.349380,86.827393 102.805344,83.397614 
	C105.542938,79.574539 105.566139,75.689697 102.270622,71.305237 
z"/>
<path fill="#EC9521" opacity="1.000000" stroke="none" 
	d="
M70.709496,73.014481 
	C70.768814,79.800224 74.548058,84.698891 78.788208,89.707161 
	C78.410049,91.246956 77.730827,92.538712 78.076637,93.434982 
	C79.674561,97.576424 81.671936,101.562370 83.313461,105.688660 
	C86.276482,113.136780 89.087822,120.645233 91.962509,128.128494 
	C89.007477,125.323578 86.052444,122.518669 83.162430,119.138596 
	C82.945061,116.664177 83.056595,114.594025 82.318481,112.892448 
	C75.903458,98.104004 69.392502,83.356110 62.741840,68.672348 
	C61.918118,66.853676 60.110313,65.480721 58.758518,63.901218 
	C59.579861,62.581192 60.401203,61.261162 61.684109,60.078945 
	C63.448643,62.695000 64.576569,65.288452 66.108437,67.616043 
	C67.398331,69.575974 69.157860,71.226814 70.709496,73.014481 
z"/>
<path fill="#EE9D2B" opacity="1.000000" stroke="none" 
	d="
M58.486229,64.082314 
	C60.110313,65.480721 61.918118,66.853676 62.741840,68.672348 
	C69.392502,83.356110 75.903458,98.104004 82.318481,112.892448 
	C83.056595,114.594025 82.945061,116.664177 83.012451,118.836205 
	C80.919228,117.352852 79.041023,115.596725 77.047256,113.134918 
	C76.568153,110.837418 76.438705,109.144829 75.803673,107.669922 
	C71.173370,96.915726 66.537857,86.161270 61.675346,75.511276 
	C60.423332,72.769089 58.356033,70.399139 56.663258,67.858185 
	C57.180153,66.659927 57.697048,65.461662 58.486229,64.082314 
z"/>
<path fill="#E9920D" opacity="1.000000" stroke="none" 
	d="
M128.908478,134.962311 
	C128.268448,131.659561 127.628410,128.356827 126.959488,124.241058 
	C126.506500,120.682648 126.288185,117.886047 125.620178,115.201340 
	C123.515633,106.743172 121.242325,98.327003 119.034325,89.894577 
	C120.556679,91.127396 122.079025,92.360207 123.645889,94.193710 
	C123.911072,96.401459 123.934319,98.066002 124.382889,99.606720 
	C128.927368,115.215797 133.541321,130.804642 138.135803,146.399155 
	C137.622543,147.201004 137.109299,148.002838 136.040192,148.719162 
	C134.628571,146.751617 133.808899,144.852127 132.908447,142.991745 
	C131.605789,140.300400 130.244659,137.637405 128.908478,134.962311 
z"/>
<path fill="#E4B628" opacity="1.000000" stroke="none" 
	d="
M133.013809,102.984550 
	C143.001221,112.138206 149.128159,122.535774 143.314041,136.689758 
	C139.524536,125.508636 136.269165,114.246590 133.013809,102.984550 
z"/>
<path fill="#EDA235" opacity="1.000000" stroke="none" 
	d="
M56.400261,68.098442 
	C58.356033,70.399139 60.423332,72.769089 61.675346,75.511276 
	C66.537857,86.161270 71.173370,96.915726 75.803673,107.669922 
	C76.438705,109.144829 76.568153,110.837418 76.922760,112.838348 
	C74.326347,110.802109 71.738861,108.356735 69.034943,105.204681 
	C66.185631,97.476219 63.644154,90.371063 60.637730,83.468407 
	C59.172276,80.103775 56.839321,77.116982 54.899048,73.959152 
	C55.311790,72.085670 55.724529,70.212181 56.400261,68.098442 
z"/>
<path fill="#E27E03" opacity="1.000000" stroke="none" 
	d="
M91.973167,102.284378 
	C96.171753,106.404533 100.370338,110.524689 104.749634,115.327042 
	C106.301117,120.036781 107.671875,124.064339 109.042633,128.091888 
	C107.261818,129.725403 105.480995,131.358917 103.324661,132.616486 
	C102.100883,129.756943 101.305855,127.253616 100.394409,124.793411 
	C97.611397,117.281479 94.783562,109.786163 91.973167,102.284378 
z"/>
<path fill="#EB8F18" opacity="1.000000" stroke="none" 
	d="
M92.081879,128.425903 
	C89.087822,120.645233 86.276482,113.136780 83.313461,105.688660 
	C81.671936,101.562370 79.674561,97.576424 78.076637,93.434982 
	C77.730827,92.538712 78.410049,91.246956 78.932640,90.017914 
	C80.782959,91.306625 82.317780,92.714790 83.966415,94.819092 
	C84.663933,97.562431 85.036293,99.700188 85.867905,101.641167 
	C89.462128,110.030098 93.301956,118.315765 96.768761,126.755516 
	C97.398979,128.289764 96.703888,130.368393 96.620613,132.195709 
	C95.147491,131.038239 93.674370,129.880768 92.081879,128.425903 
z"/>
<path fill="#421F07" opacity="1.000000" stroke="none" 
	d="
M135.974731,88.207169 
	C133.744507,86.069115 131.514297,83.931061 129.119003,81.102509 
	C126.609726,74.221581 124.311226,68.013351 121.908905,61.845566 
	C119.323936,55.208832 116.641602,48.610012 114.001755,41.994652 
	C116.219521,43.804848 118.437294,45.615044 120.836761,48.104286 
	C124.921623,58.340977 128.910156,67.865112 132.682739,77.474022 
	C134.046356,80.947189 134.892471,84.623535 135.974731,88.207169 
z"/>
<path fill="#311605" opacity="1.000000" stroke="none" 
	d="
M65.046432,119.783867 
	C67.556870,122.010132 70.067299,124.236397 72.428909,126.887390 
	C72.330605,129.142349 72.067543,131.047623 72.484535,132.790146 
	C74.571892,141.513000 76.837433,150.193207 79.040344,158.888412 
	C76.718819,156.498047 74.397285,154.107681 72.157272,151.118530 
	C72.021912,149.081619 71.913094,147.617188 71.570511,146.209641 
	C69.424820,137.393997 67.227005,128.591034 65.046432,119.783867 
z"/>
<path fill="#E99D15" opacity="1.000000" stroke="none" 
	d="
M138.415955,146.218292 
	C133.541321,130.804642 128.927368,115.215797 124.382889,99.606720 
	C123.934319,98.066002 123.911072,96.401459 123.807961,94.484787 
	C125.797722,95.915939 127.669930,97.656685 129.352386,99.852486 
	C128.917419,101.035805 128.310303,101.865501 128.481705,102.476982 
	C130.758194,110.598480 132.925964,118.761749 135.583221,126.761009 
	C137.204803,131.642593 139.621490,136.260040 141.681061,140.996124 
	C140.686066,142.676559 139.691071,144.356995 138.415955,146.218292 
z"/>
<path fill="#EDA940" opacity="1.000000" stroke="none" 
	d="
M54.684967,74.310654 
	C56.839321,77.116982 59.172276,80.103775 60.637730,83.468407 
	C63.644154,90.371063 66.185631,97.476219 68.905060,104.909988 
	C59.753681,97.139099 51.925293,88.340302 54.684967,74.310654 
z"/>
<path fill="#E8870D" opacity="1.000000" stroke="none" 
	d="
M96.853455,132.458038 
	C96.703888,130.368393 97.398979,128.289764 96.768761,126.755516 
	C93.301956,118.315765 89.462128,110.030098 85.867905,101.641167 
	C85.036293,99.700188 84.663933,97.562431 84.095573,95.104980 
	C86.603920,97.033150 89.096947,99.371567 91.781570,101.997177 
	C94.783562,109.786163 97.611397,117.281479 100.394409,124.793411 
	C101.305855,127.253616 102.100883,129.756943 102.976875,132.623566 
	C101.031830,132.911194 99.059059,132.815781 96.853455,132.458038 
z"/>
<path fill="#240F03" opacity="1.000000" stroke="none" 
	d="
M64.954758,119.466560 
	C67.227005,128.591034 69.424820,137.393997 71.570511,146.209641 
	C71.913094,147.617188 72.021912,149.081619 72.050781,150.795990 
	C70.067329,149.531738 68.271896,147.991272 66.240906,145.802979 
	C65.650909,143.208893 65.443275,141.221893 64.916573,139.323410 
	C62.658535,131.184464 60.306549,123.071594 57.988808,114.949219 
	C60.280231,116.349228 62.571659,117.749245 64.954758,119.466560 
z"/>
<path fill="#4F2508" opacity="1.000000" stroke="none" 
	d="
M113.774918,41.745693 
	C116.641602,48.610012 119.323936,55.208832 121.908905,61.845566 
	C124.311226,68.013351 126.609726,74.221581 128.945160,80.830597 
	C126.713203,79.119080 124.490013,76.988976 122.106232,74.167816 
	C121.211792,71.146904 120.639076,68.751007 119.715973,66.498711 
	C115.907135,57.205475 111.992050,47.955791 108.116013,38.690094 
	C109.926704,39.625645 111.737404,40.561192 113.774918,41.745693 
z"/>
<path fill="#582909" opacity="1.000000" stroke="none" 
	d="
M102.528839,71.573776 
	C105.566139,75.689697 105.542938,79.574539 102.805344,83.397614 
	C100.349380,86.827393 96.532631,88.115059 93.127495,86.352814 
	C90.398590,84.940536 87.282448,81.748581 86.919006,79.004601 
	C86.555656,76.261292 88.724869,72.362579 90.988762,70.280251 
	C94.531746,67.021416 98.733200,68.273552 102.528839,71.573776 
M94.764519,72.150688 
	C89.883629,74.637955 88.268967,79.069992 91.668198,81.741112 
	C93.295097,83.019516 96.478676,83.628990 98.327499,82.913727 
	C99.917023,82.298782 101.476662,79.387199 101.512558,77.462456 
	C101.576782,74.019760 98.985374,72.277649 94.764519,72.150688 
z"/>
<path fill="#6B330B" opacity="1.000000" stroke="none" 
	d="
M96.970535,36.176231 
	C98.759666,36.297504 100.548798,36.418777 102.700592,37.091213 
	C103.809280,39.631996 104.552795,41.622566 105.301765,43.611080 
	C108.179993,51.252693 111.059959,58.893650 113.939278,66.534851 
	C110.723816,63.597214 107.508362,60.659580 104.133522,57.023705 
	C103.369377,53.991081 102.939949,51.593216 102.122627,49.335789 
	C100.519470,44.907921 98.700310,40.558258 96.970535,36.176231 
z"/>
<path fill="#3D1C06" opacity="1.000000" stroke="none" 
	d="
M79.210327,159.177277 
	C76.837433,150.193207 74.571892,141.513000 72.484535,132.790146 
	C72.067543,131.047623 72.330605,129.142349 72.568970,127.186615 
	C74.762802,128.860352 76.667763,130.659592 78.433319,132.881088 
	C78.344734,134.835526 78.135307,136.430847 78.489113,137.889542 
	C80.595901,146.575623 82.832840,155.230133 85.026070,163.895233 
	C83.144150,162.418869 81.262222,160.942520 79.210327,159.177277 
z"/>
<path fill="#4A2208" opacity="1.000000" stroke="none" 
	d="
M85.287842,164.110352 
	C82.832840,155.230133 80.595901,146.575623 78.489113,137.889542 
	C78.135307,136.430847 78.344734,134.835526 78.560539,133.181839 
	C81.103493,135.180420 83.379829,137.300507 85.483322,139.857254 
	C85.342567,142.104736 85.056633,143.990402 85.462196,145.713303 
	C87.158318,152.918640 89.061951,160.075119 90.889542,167.249512 
	C89.109558,166.274826 87.329582,165.300140 85.287842,164.110352 
z"/>
<path fill="#5C2B0A" opacity="1.000000" stroke="none" 
	d="
M114.117294,66.773453 
	C111.059959,58.893650 108.179993,51.252693 105.301765,43.611080 
	C104.552795,41.622566 103.809280,39.631996 103.048340,37.254509 
	C104.549911,37.337090 106.066414,37.807529 107.849457,38.484032 
	C111.992050,47.955791 115.907135,57.205475 119.715973,66.498711 
	C120.639076,68.751007 121.211792,71.146904 121.934677,73.897652 
	C119.380920,71.883041 116.838112,69.447540 114.117294,66.773453 
z"/>
<path fill="#381906" opacity="1.000000" stroke="none" 
	d="
M136.145111,88.471382 
	C134.892471,84.623535 134.046356,80.947189 132.682739,77.474022 
	C128.910156,67.865112 124.921623,58.340977 121.013374,48.383678 
	C122.486214,49.554737 123.964134,51.125446 125.746536,53.249214 
	C130.336777,63.808647 134.698669,73.783569 138.854980,83.843430 
	C139.899384,86.371284 140.284470,89.171532 140.972549,91.846603 
	C139.420197,90.809601 137.867828,89.772598 136.145111,88.471382 
z"/>
<path fill="#582909" opacity="1.000000" stroke="none" 
	d="
M91.169861,167.456375 
	C89.061951,160.075119 87.158318,152.918640 85.462196,145.713303 
	C85.056633,143.990402 85.342567,142.104736 85.604080,140.165100 
	C88.173485,142.153748 90.449287,144.271240 92.536430,146.832169 
	C92.257607,148.764542 91.800911,150.343567 92.140907,151.726746 
	C93.591400,157.627609 95.277351,163.470612 96.877388,169.334717 
	C95.068314,168.777557 93.259247,168.220398 91.169861,167.456375 
z"/>
<path fill="#160802" opacity="1.000000" stroke="none" 
	d="
M57.735016,114.774185 
	C60.306549,123.071594 62.658535,131.184464 64.916573,139.323410 
	C65.443275,141.221893 65.650909,143.208893 66.011620,145.567230 
	C63.793049,143.508881 61.568207,141.038467 59.160522,137.883423 
	C56.983006,130.131714 54.988327,123.064644 52.993649,115.997566 
	C54.489506,115.531425 55.985367,115.065285 57.735016,114.774185 
z"/>
<path fill="#311605" opacity="1.000000" stroke="none" 
	d="
M141.368652,91.884537 
	C140.284470,89.171532 139.899384,86.371284 138.854980,83.843430 
	C134.698669,73.783569 130.336777,63.808647 126.020409,53.430252 
	C128.213135,55.180908 130.436462,57.303585 132.857880,60.085892 
	C134.061798,63.555977 135.010132,66.388641 136.084610,69.172615 
	C139.007874,76.746811 141.984497,84.300415 144.939972,91.862183 
	C143.881561,91.882278 142.823151,91.902374 141.368652,91.884537 
z"/>
<path fill="#E58002" opacity="1.000000" stroke="none" 
	d="
M122.025589,118.006676 
	C120.772438,116.866577 119.519287,115.726479 118.135201,113.885284 
	C117.647148,111.407402 117.384460,109.605309 116.916428,107.858231 
	C114.984818,100.647964 112.990959,93.454361 111.019981,86.254639 
	C112.486694,86.398293 113.953400,86.541946 115.714523,87.336960 
	C117.943977,95.301796 120.032310,102.579948 121.730751,109.947975 
	C122.323685,112.520187 121.955086,115.314041 122.025589,118.006676 
z"/>
<path fill="#EAA91C" opacity="1.000000" stroke="none" 
	d="
M141.897156,140.715179 
	C139.621490,136.260040 137.204803,131.642593 135.583221,126.761009 
	C132.925964,118.761749 130.758194,110.598480 128.481705,102.476982 
	C128.310303,101.865501 128.917419,101.035805 129.439209,100.157700 
	C130.726257,100.801666 131.736755,101.595482 132.880524,102.686920 
	C136.269165,114.246590 139.524536,125.508636 143.099655,136.978516 
	C142.984024,138.268997 142.548630,139.351624 141.897156,140.715179 
z"/>
<path fill="#240F03" opacity="1.000000" stroke="none" 
	d="
M145.241684,91.749069 
	C141.984497,84.300415 139.007874,76.746811 136.084610,69.172615 
	C135.010132,66.388641 134.061798,63.555977 133.033508,60.364853 
	C135.555344,62.470276 138.099609,64.956367 140.827393,68.113037 
	C143.694199,75.195511 146.377487,81.607414 149.060776,88.019325 
	C147.888321,89.224869 146.715851,90.430412 145.241684,91.749069 
z"/>
<path fill="#090200" opacity="1.000000" stroke="none" 
	d="
M52.676003,116.108521 
	C54.988327,123.064644 56.983006,130.131714 58.983021,137.602264 
	C56.365669,135.512833 53.500996,133.225708 51.170322,130.484528 
	C46.212990,124.654060 46.569351,121.753868 52.676003,116.108521 
z"/>
<path fill="#6B330B" opacity="1.000000" stroke="none" 
	d="
M106.022598,169.818069 
	C104.302513,169.888504 102.582420,169.958954 100.432419,169.556244 
	C99.071434,165.102707 97.980789,161.150528 97.270668,157.131104 
	C96.861313,154.814072 97.066956,152.388367 96.995781,150.011581 
	C98.522163,150.825455 100.048546,151.639328 101.793404,153.104248 
	C103.348785,159.109558 104.685692,164.463821 106.022598,169.818069 
z"/>
<path fill="#E8870D" opacity="1.000000" stroke="none" 
	d="
M122.152336,118.311600 
	C121.955086,115.314041 122.323685,112.520187 121.730751,109.947975 
	C120.032310,102.579948 117.943977,95.301796 116.008911,87.575409 
	C116.965012,87.874046 117.921150,88.585579 118.955803,89.595848 
	C121.242325,98.327003 123.515633,106.743172 125.620178,115.201340 
	C126.288185,117.886047 126.506500,120.682648 126.904022,123.880524 
	C125.344666,122.427505 123.811874,120.522018 122.152336,118.311600 
z"/>
<path fill="#D97602" opacity="1.000000" stroke="none" 
	d="
M110.697693,86.221741 
	C112.990959,93.454361 114.984818,100.647964 116.916428,107.858231 
	C117.384460,109.605309 117.647148,111.407402 118.001366,113.594559 
	C116.410980,112.558968 114.823502,111.113007 113.109947,108.957138 
	C110.989456,101.499588 108.995049,94.751930 107.000641,88.004280 
	C108.125565,87.399132 109.250488,86.793983 110.697693,86.221741 
z"/>
<path fill="#E58002" opacity="1.000000" stroke="none" 
	d="
M128.696686,135.208435 
	C130.244659,137.637405 131.605789,140.300400 132.908447,142.991745 
	C133.808899,144.852127 134.628571,146.751617 135.778076,148.842896 
	C134.618225,150.720718 133.164642,152.389282 131.284744,153.904236 
	C129.528946,149.062149 128.199478,144.373657 126.870010,139.685181 
	C127.408295,138.274979 127.946587,136.864777 128.696686,135.208435 
z"/>
<path fill="#7B3C0C" opacity="1.000000" stroke="none" 
	d="
M96.625687,36.133553 
	C98.700310,40.558258 100.519470,44.907921 102.122627,49.335789 
	C102.939949,51.593216 103.369377,53.991081 103.966255,56.742470 
	C102.015701,56.040756 100.073044,54.922039 98.092880,53.301353 
	C97.737625,51.260784 97.571190,49.671146 97.072762,48.193493 
	C95.759529,44.300251 94.302071,40.455658 92.902046,36.591690 
	C94.028313,36.424755 95.154579,36.257816 96.625687,36.133553 
z"/>
<path fill="#E27E03" opacity="1.000000" stroke="none" 
	d="
M78.084358,60.031006 
	C76.599434,61.929604 75.114510,63.828201 73.232697,65.457291 
	C70.774384,61.399399 68.712959,57.611012 66.651527,53.822617 
	C68.182785,52.197399 69.714043,50.572182 71.710251,49.146622 
	C74.144913,52.907852 76.114639,56.469429 78.084358,60.031006 
z"/>
<path fill="#160802" opacity="1.000000" stroke="none" 
	d="
M149.382370,87.891846 
	C146.377487,81.607414 143.694199,75.195511 141.004364,68.392838 
	C145.777374,71.314232 149.430908,75.624931 150.911560,81.237938 
	C151.421906,83.172607 150.157593,85.575409 149.382370,87.891846 
z"/>
<path fill="#65300B" opacity="1.000000" stroke="none" 
	d="
M96.791672,149.767319 
	C97.066956,152.388367 96.861313,154.814072 97.270668,157.131104 
	C97.980789,161.150528 99.071434,165.102707 100.004364,169.499390 
	C99.154648,169.820572 98.303055,169.725433 97.164429,169.482498 
	C95.277351,163.470612 93.591400,157.627609 92.140907,151.726746 
	C91.800911,150.343567 92.257607,148.764542 92.647636,147.145996 
	C94.160851,147.851929 95.374207,148.687485 96.791672,149.767319 
z"/>
<path fill="#8B460A" opacity="1.000000" stroke="none" 
	d="
M114.064034,167.221893 
	C112.603157,167.791153 111.142288,168.360428 109.331711,168.548096 
	C107.993362,163.396591 107.004707,158.626709 106.016045,153.856827 
	C107.444771,153.625336 108.873505,153.393845 110.660080,153.568787 
	C112.033302,158.390778 113.048668,162.806335 114.064034,167.221893 
z"/>
<path fill="#8B460A" opacity="1.000000" stroke="none" 
	d="
M92.529404,36.620079 
	C94.302071,40.455658 95.759529,44.300251 97.072762,48.193493 
	C97.571190,49.671146 97.737625,51.260784 97.848343,53.073669 
	C96.652580,53.168362 95.663864,52.988758 94.281921,52.345062 
	C91.934181,47.276756 89.979668,42.672554 88.025154,38.068344 
	C89.402351,37.595051 90.779556,37.121761 92.529404,36.620079 
z"/>
<path fill="#D97602" opacity="1.000000" stroke="none" 
	d="
M126.600693,139.888443 
	C128.199478,144.373657 129.528946,149.062149 131.018402,154.116425 
	C130.402054,155.305984 129.625748,156.129730 128.278351,156.853394 
	C126.894058,155.210999 126.093437,153.661865 125.264503,152.128052 
	C124.149544,150.064987 123.012749,148.013733 121.885323,145.957397 
	C123.367340,144.002167 124.849358,142.046936 126.600693,139.888443 
z"/>
<path fill="#9D5108" opacity="1.000000" stroke="none" 
	d="
M87.698158,38.095589 
	C89.979668,42.672554 91.934181,47.276756 93.921600,52.232040 
	C92.577118,52.714592 91.199722,52.846069 89.400635,52.574165 
	C87.311668,48.094395 85.644394,44.018009 83.977119,39.941628 
	C85.108467,39.335358 86.239815,38.729092 87.698158,38.095589 
z"/>
<path fill="#BA6305" opacity="1.000000" stroke="none" 
	d="
M117.049362,150.133301 
	C118.151726,149.130905 119.254089,148.128510 120.728279,147.355270 
	C122.794868,151.422714 124.489632,155.261017 126.184387,159.099319 
	C125.086426,160.057266 123.988457,161.015213 122.285591,161.867111 
	C120.136917,157.885147 118.593140,154.009232 117.049362,150.133301 
z"/>
<path fill="#CC6E03" opacity="1.000000" stroke="none" 
	d="
M106.708664,88.047844 
	C108.995049,94.751930 110.989456,101.499588 112.976318,108.661682 
	C111.385422,107.626358 109.802086,106.176590 108.081772,104.018425 
	C106.943893,98.831100 105.942993,94.352173 104.942093,89.873245 
	C105.433632,89.279297 105.925163,88.685356 106.708664,88.047844 
z"/>
<path fill="#7B3C0C" opacity="1.000000" stroke="none" 
	d="
M105.708832,153.704987 
	C107.004707,158.626709 107.993362,163.396591 108.989052,168.564178 
	C108.217918,169.255447 107.439758,169.549026 106.342094,169.830322 
	C104.685692,164.463821 103.348785,159.109558 102.016541,153.335876 
	C103.148010,153.128677 104.274811,153.340927 105.708832,153.704987 
z"/>
<path fill="#AD5B07" opacity="1.000000" stroke="none" 
	d="
M116.756355,150.209045 
	C118.593140,154.009232 120.136917,157.885147 121.987938,161.969727 
	C120.811119,163.246445 119.327057,164.314529 117.370377,165.108521 
	C115.936554,160.568329 114.975349,156.302231 114.014137,152.036102 
	C114.830536,151.452332 115.646942,150.868561 116.756355,150.209045 
z"/>
<path fill="#EB8F18" opacity="1.000000" stroke="none" 
	d="
M70.831985,72.664986 
	C69.157860,71.226814 67.398331,69.575974 66.108437,67.616043 
	C64.576569,65.288452 63.448643,62.695000 61.961021,59.889450 
	C62.638050,58.393616 63.499737,57.225090 64.674683,56.289864 
	C67.276917,60.351742 69.565895,64.180321 71.854874,68.008896 
	C71.554741,69.444427 71.254608,70.879959 70.831985,72.664986 
z"/>
<path fill="#BA6305" opacity="1.000000" stroke="none" 
	d="
M77.930901,43.773155 
	C78.719559,43.148460 79.508224,42.523769 80.741867,42.130844 
	C82.800186,46.263596 84.413521,50.164574 86.026863,54.065556 
	C84.866592,54.886597 83.706314,55.707638 82.224319,56.261551 
	C80.578705,51.920666 79.254799,47.846912 77.930901,43.773155 
z"/>
<path fill="#E98A10" opacity="1.000000" stroke="none" 
	d="
M71.968170,67.718399 
	C69.565895,64.180321 67.276917,60.351742 64.949333,56.132915 
	C65.326950,55.176533 65.743172,54.610401 66.405457,53.933445 
	C68.712959,57.611012 70.774384,61.399399 72.914856,65.534332 
	C72.689758,66.396545 72.385612,66.912216 71.968170,67.718399 
z"/>
<path fill="#AD5B07" opacity="1.000000" stroke="none" 
	d="
M86.347435,54.041405 
	C84.413521,50.164574 82.800186,46.263596 81.029922,42.021080 
	C81.707001,41.135078 82.541008,40.590611 83.676071,39.993889 
	C85.644394,44.018009 87.311668,48.094395 88.985489,52.557838 
	C88.217361,53.302345 87.442688,53.659798 86.347435,54.041405 
z"/>
<path fill="#CC6E03" opacity="1.000000" stroke="none" 
	d="
M77.651283,43.865158 
	C79.254799,47.846912 80.578705,51.920666 81.934822,56.358955 
	C81.555099,57.124008 81.143158,57.524521 80.192993,57.758400 
	C78.019806,53.801563 76.384850,50.011360 74.749886,46.221161 
	C75.623810,45.466496 76.497742,44.711830 77.651283,43.865158 
z"/>
<path fill="#9D5108" opacity="1.000000" stroke="none" 
	d="
M113.692337,152.063385 
	C114.975349,156.302231 115.936554,160.568329 117.043427,165.231125 
	C116.342758,166.121216 115.496407,166.614609 114.357048,167.164948 
	C113.048668,162.806335 112.033302,158.390778 111.021591,153.569580 
	C111.807007,152.806183 112.588768,152.448425 113.692337,152.063385 
z"/>
<path fill="#BA6305" opacity="1.000000" stroke="none" 
	d="
M104.664124,90.085617 
	C105.942993,94.352173 106.943893,98.831100 107.938843,103.729271 
	C101.823723,99.052078 101.113304,96.277794 104.664124,90.085617 
z"/>
<path fill="#D97602" opacity="1.000000" stroke="none" 
	d="
M74.446793,46.332493 
	C76.384850,50.011360 78.019806,53.801563 79.914986,57.836731 
	C79.662735,58.665150 79.150269,59.248600 78.361076,59.931526 
	C76.114639,56.469429 74.144913,52.907852 72.018227,49.009262 
	C72.622078,47.929440 73.382889,47.186634 74.446793,46.332493 
z"/>
<path fill="#CC6E03" opacity="1.000000" stroke="none" 
	d="
M109.323029,127.885773 
	C107.671875,124.064339 106.301117,120.036781 104.923615,115.619789 
	C109.049583,118.412445 111.979042,122.047501 109.323029,127.885773 
z"/>
<path fill="#CC6E03" opacity="1.000000" stroke="none" 
	d="
M126.458015,158.988739 
	C124.489632,155.261017 122.794868,151.422714 121.011581,147.204422 
	C120.954247,146.480148 121.119240,146.221100 121.651688,146.002350 
	C123.012749,148.013733 124.149544,150.064987 125.264503,152.128052 
	C126.093437,153.661865 126.894058,155.210999 128.016052,156.967438 
	C127.793770,157.747116 127.262703,158.312637 126.458015,158.988739 
z"/>
<path fill="#BA6305" opacity="1.000000" stroke="none" 
	d="
M95.146980,72.122040 
	C98.985374,72.277649 101.576782,74.019760 101.512558,77.462456 
	C101.476662,79.387199 99.917023,82.298782 98.327499,82.913727 
	C96.478676,83.628990 93.295097,83.019516 91.668198,81.741112 
	C88.268967,79.069992 89.883629,74.637955 95.146980,72.122040 
M95.601692,75.099014 
	C92.926064,75.928337 92.161285,77.776100 93.923325,79.806717 
	C94.545227,80.523430 97.349800,80.537659 97.982658,79.826622 
	C99.774338,77.813629 99.017944,75.962753 95.601692,75.099014 
z"/>
<path fill="#EC9521" opacity="1.000000" stroke="none" 
	d="
M95.979721,75.100334 
	C99.017944,75.962753 99.774338,77.813629 97.982658,79.826622 
	C97.349800,80.537659 94.545227,80.523430 93.923325,79.806717 
	C92.161285,77.776100 92.926064,75.928337 95.979721,75.100334 
z"/>
</svg>