<?xml version="1.0" encoding="UTF-8"?>
<svg version="1.1" xmlns="http://www.w3.org/2000/svg" width="300" height="300">
<path d="M0 0 C2.46163455 0.00315625 4.92205807 -0.02037933 7.38354492 -0.0456543 C47.50803687 -0.20682506 84.21989232 18.19798933 112.4128418 46.03051758 C129.09641935 63.78288682 140.85849463 85.29529807 147.9753418 108.50317383 C148.21784668 109.2857959 148.46035156 110.06841797 148.71020508 110.87475586 C152.26774676 123.02068086 153.01217268 135.02761454 152.97851562 147.59790039 C152.97536382 150.04855256 152.99887916 152.49798291 153.02416992 154.94848633 C153.08652909 169.93067732 150.97393167 183.96512689 146.1003418 198.19067383 C145.58479736 199.70830322 145.58479736 199.70830322 145.05883789 201.2565918 C131.6305827 239.33823747 102.95938872 269.42185933 66.9987793 287.14379883 C58.20665021 291.31567383 58.20665021 291.31567383 54.6628418 291.31567383 C54.3328418 291.97567383 54.0028418 292.63567383 53.6628418 293.31567383 C41.07611774 297.98375984 26.65958135 300.44205023 13.2644043 300.51879883 C12.47117767 300.5244989 11.67795105 300.53019897 10.86068726 300.53607178 C9.18488883 300.54547542 7.50907229 300.5520372 5.83325195 300.5559082 C3.3294828 300.56551407 0.82657166 300.59653933 -1.67700195 300.62817383 C-16.79054854 300.72986712 -30.85643579 298.67136107 -45.2121582 293.75317383 C-46.7297876 293.23762939 -46.7297876 293.23762939 -48.27807617 292.71166992 C-63.81729082 287.2322707 -77.24212837 279.20341843 -90.3371582 269.31567383 C-92.14652189 268.02602605 -93.96111992 266.74451302 -95.78149414 265.47045898 C-100.30669988 262.11135303 -103.8514004 257.63863578 -107.4934082 253.37817383 C-108.85584843 251.85408815 -110.28843496 250.3920594 -111.75512695 248.96801758 C-114.5232914 246.12447196 -116.86676757 243.11056117 -119.1496582 239.87817383 C-119.58125244 239.2676416 -120.01284668 238.65710938 -120.45751953 238.02807617 C-132.76156683 220.34851826 -140.63384047 201.30189487 -145.4699707 180.40161133 C-145.61321777 179.78334473 -145.75646484 179.16507813 -145.90405273 178.52807617 C-147.06167193 172.61469109 -147.50602947 166.88577779 -147.5402832 160.88208008 C-147.54598328 160.08648178 -147.55168335 159.29088348 -147.55755615 158.47117615 C-147.56695886 156.79118151 -147.5735212 155.11116883 -147.57739258 153.43115234 C-147.58701198 150.91640022 -147.61804408 148.40249738 -147.6496582 145.88793945 C-147.71914486 135.32271443 -146.75040618 125.6177615 -144.3371582 115.31567383 C-144.03890137 114.03865601 -144.03890137 114.03865601 -143.73461914 112.73583984 C-134.13513361 74.57744932 -109.02127693 41.1350236 -75.38012695 20.89770508 C-63.86087899 14.15847721 -52.02126718 8.99351956 -39.2746582 5.06567383 C-38.48414062 4.81922119 -37.69362305 4.57276855 -36.87915039 4.31884766 C-24.67942664 0.71302411 -12.63372767 -0.03374326 0 0 Z " fill="#2782FB" transform="translate(147.337158203125,-0.315673828125)"/>
<path d="M0 0 C4.10941871 0.7731581 6.29536992 3.50335797 9.07275391 6.4230957 C9.96947311 7.33398453 9.96947311 7.33398453 10.88430786 8.26327515 C12.79519827 10.20874307 14.68826856 12.17049138 16.58056641 14.1340332 C18.46898047 16.07268903 20.36095564 18.00776001 22.25540161 19.94052124 C23.43176842 21.14292374 24.60414656 22.34924699 25.771698 23.56021118 C28.5693026 26.44121195 31.41986077 29.26616644 34.37011719 31.9909668 C34.91354767 32.49888763 35.45697815 33.00680847 36.01687622 33.53012085 C37.66965347 34.70006093 37.66965347 34.70006093 39.70127869 34.36283875 C42.05913696 33.35841586 43.33323887 32.21128247 45.10961914 30.36621094 C45.75386337 29.70560165 46.3981076 29.04499237 47.06187439 28.36436462 C48.09013084 27.28935448 48.09013084 27.28935448 49.13916016 26.19262695 C50.60700187 24.69172429 52.07510898 23.19108114 53.54345703 21.69067383 C55.84985666 19.31586717 58.15205672 16.93720213 60.44897461 14.55322266 C62.6682636 12.25558068 64.9026377 9.97347873 67.13916016 7.69262695 C67.82264023 6.97392929 68.5061203 6.25523163 69.21031189 5.51475525 C69.85770828 4.85729813 70.50510468 4.199841 71.17211914 3.52246094 C71.73519272 2.93923569 72.2982663 2.35601044 72.87840271 1.75511169 C75.28864399 0.11138934 76.84586534 0.19576988 79.70556641 0.5090332 C81.5480957 1.69213867 81.5480957 1.69213867 83.27978516 3.3762207 C83.93889893 4.00665283 84.5980127 4.63708496 85.27709961 5.28662109 C86.32450317 6.32484009 86.32450317 6.32484009 87.39306641 7.3840332 C88.12549561 8.08842529 88.8579248 8.79281738 89.61254883 9.51855469 C93.70847479 13.4807999 97.71182291 17.52668984 101.68212891 21.61450195 C102.49077393 22.44159668 103.29941895 23.26869141 104.13256836 24.12084961 C105.70609014 25.73736907 107.26748965 27.36578965 108.81567383 29.0065918 C109.52828369 29.74087402 110.24089355 30.47515625 110.97509766 31.23168945 C111.91252808 32.21794312 111.91252808 32.21794312 112.86889648 33.22412109 C114.61728506 34.73555857 114.61728506 34.73555857 116.78149414 34.35498047 C119.82139875 33.01844076 121.67837853 30.77182734 123.95556641 28.3840332 C127.02262758 25.21588234 130.07187353 22.09361803 133.45556641 19.2590332 C136.25821666 16.89921334 138.82027623 14.3850928 141.35791016 11.74731445 C142.02016602 11.06378906 142.68242187 10.38026367 143.36474609 9.67602539 C144.70058005 8.29002531 146.0258067 6.89371057 147.33935547 5.48657227 C147.95907227 4.84558594 148.57878906 4.20459961 149.21728516 3.54418945 C149.76860107 2.96032471 150.31991699 2.37645996 150.88793945 1.77490234 C153.33790229 0.06864884 154.77786443 0.08775843 157.70556641 0.5090332 C159.48242188 1.63891602 159.48242188 1.63891602 161.07275391 3.2121582 C161.64767578 3.78063477 162.22259766 4.34911133 162.81494141 4.93481445 C163.39759766 5.53680664 163.98025391 6.13879883 164.58056641 6.7590332 C165.18642578 7.34555664 165.79228516 7.93208008 166.41650391 8.53637695 C166.98369141 9.11000977 167.55087891 9.68364258 168.13525391 10.2746582 C168.6532959 10.79833984 169.17133789 11.32202148 169.70507812 11.86157227 C170.70556641 13.5090332 170.70556641 13.5090332 170.42216492 15.43565369 C169.23686439 18.86515821 166.52483455 21.07390061 163.98291016 23.55981445 C163.40400528 24.13684616 162.8251004 24.71387787 162.22865295 25.30839539 C161.00057207 26.52975581 159.76889964 27.74751396 158.53393555 28.96191406 C156.66746707 30.79753581 154.81158677 32.6433169 152.95751953 34.49145508 C147.61221939 39.80085714 142.24920198 45.01042564 136.51000977 49.89648438 C134.43510759 51.75072993 132.52180621 53.71541313 130.60009766 55.7277832 C129.9265625 56.43161133 129.25302734 57.13543945 128.55908203 57.8605957 C127.17721226 59.31519546 125.80504773 60.77906654 124.44189453 62.2512207 C123.77222656 62.94473633 123.10255859 63.63825195 122.41259766 64.3527832 C121.81938721 64.9837793 121.22617676 65.61477539 120.61499023 66.26489258 C118.70556641 67.5090332 118.70556641 67.5090332 116.09619141 67.30639648 C113.20101698 66.34074701 111.94750007 65.12444718 109.89306641 62.8840332 C107.4051788 60.19987302 104.8441582 57.73637359 102.06884766 55.35668945 C97.0390586 51.0021772 92.38426581 46.29694773 87.70556641 41.5715332 C86.83544922 40.6969043 85.96533203 39.82227539 85.06884766 38.92114258 C82.94543091 36.78605871 80.82440263 34.64866115 78.70556641 32.5090332 C75.82524763 33.8133308 73.77699378 35.19414808 71.56103516 37.44238281 C70.97362549 38.03317123 70.38621582 38.62395966 69.78100586 39.23265076 C68.84647583 40.18737022 68.84647583 40.18737022 67.89306641 41.16137695 C67.24233154 41.81731339 66.59159668 42.47324982 65.92114258 43.14906311 C63.84447304 45.2435228 61.77461134 47.34454322 59.70556641 49.4465332 C57.63567914 51.54408633 55.5643371 53.6401484 53.48999023 55.73329163 C52.20056862 57.03491581 50.91382962 58.33920438 49.63012695 59.64646912 C43.15550095 66.19308104 43.15550095 66.19308104 40.70556641 67.5090332 C36.38100637 67.38494009 34.39438889 65.67691748 31.45556641 62.6496582 C30.68212891 61.86333008 29.90869141 61.07700195 29.11181641 60.2668457 C28.31775391 59.43926758 27.52369141 58.61168945 26.70556641 57.7590332 C25.91150391 56.94692383 25.11744141 56.13481445 24.29931641 55.2980957 C22.09441315 53.0417447 19.89967175 50.77587427 17.70556641 48.5090332 C14.73115564 45.4848415 11.71888307 42.60257063 8.51806641 39.8215332 C3.24866193 35.07424959 -1.89217378 30.19820548 -6.98193359 25.2590332 C-7.80910889 24.47826416 -8.63628418 23.69749512 -9.48852539 22.89306641 C-10.25334229 22.1424292 -11.01815918 21.39179199 -11.80615234 20.6184082 C-12.50184326 19.94777344 -13.19753418 19.27713867 -13.91430664 18.58618164 C-15.29443359 16.5090332 -15.29443359 16.5090332 -15.17163086 13.93310547 C-13.86870972 10.33257554 -11.33287683 8.18289509 -8.54443359 5.6965332 C-8.01849609 5.19444336 -7.49255859 4.69235352 -6.95068359 4.17504883 C-4.74854313 2.17186413 -2.94127785 0.6525393 0 0 Z " fill="#FCFDFE" transform="translate(72.29443359375,139.490966796875)"/>
<path d="M0 0 C4.277024 3.3802476 8.17180452 7.12615312 12 11 C12.99 11.99 12.99 11.99 14 13 C14.42578125 15.30078125 14.42578125 15.30078125 14 18 C11.91796875 20.60546875 11.91796875 20.60546875 9.1875 23.1875 C8.29417969 24.04730469 7.40085937 24.90710938 6.48046875 25.79296875 C1.7178796 30.03054807 1.7178796 30.03054807 -0.8359375 29.921875 C-3.9625609 28.58995601 -6.09424418 26.50698012 -8.625 24.25 C-21.5573815 13.12933475 -36.0414958 9.77809673 -52.859375 10.79296875 C-66.44474363 12.10688214 -77.21138261 19.35611332 -86.02734375 29.375 C-86.67832031 29.91125 -87.32929687 30.4475 -88 31 C-92.86472509 30.42811629 -95.50010312 27.05156025 -98.8125 23.75 C-99.72805664 22.88955078 -99.72805664 22.88955078 -100.66210938 22.01171875 C-104.94851767 17.76880276 -104.94851767 17.76880276 -105.17578125 14.375 C-99.31636595 2.53937043 -81.75598006 -6.14770978 -69.7578125 -10.24609375 C-68.84773438 -10.49488281 -67.93765625 -10.74367188 -67 -11 C-66.37246826 -11.17297607 -65.74493652 -11.34595215 -65.09838867 -11.52416992 C-43.26978972 -17.01136802 -18.49585132 -12.92168811 0 0 Z " fill="#FBFDFE" transform="translate(195,107)"/>
<path d="M0 0 C0.66 0.33 1.32 0.66 2 1 C1.48050781 2.00417969 0.96101563 3.00835937 0.42578125 4.04296875 C-6.04128787 16.67114815 -10.98589302 29.37805363 -15 43 C-15.391875 44.216875 -15.78375 45.43375 -16.1875 46.6875 C-17.11141464 50.4542289 -17.42273824 54.09631783 -17.65625 57.9609375 C-17.7696875 58.63382813 -17.883125 59.30671875 -18 60 C-18.99 60.495 -18.99 60.495 -20 61 C-21.48641777 40.56175566 -11.16550165 18.20697109 -1 1 C-0.67 0.67 -0.34 0.34 0 0 Z " fill="#4894FA" transform="translate(21,72)"/>
<path d="M0 0 C0.66 0 1.32 0 2 0 C2.17015625 1.14855469 2.3403125 2.29710937 2.515625 3.48046875 C3.84114111 12.08471244 5.41501228 20.2395304 8.23046875 28.49609375 C9 31 9 31 9 34 C8.34 34 7.68 34 7 34 C5.35085579 30.08790454 4.10291849 26.14368034 2.9375 22.0625 C2.59589844 20.87785156 2.25429688 19.69320312 1.90234375 18.47265625 C0.64872505 13.64812367 -0.13806633 9.1123775 -0.0625 4.125 C-0.05347656 3.34382812 -0.04445312 2.56265625 -0.03515625 1.7578125 C-0.02355469 1.17773438 -0.01195313 0.59765625 0 0 Z " fill="#4D96FA" transform="translate(1,167)"/>
<path d="M0 0 C0.33 0.99 0.66 1.98 1 3 C-1.31 5.31 -3.62 7.62 -6 10 C-6.99 9.67 -7.98 9.34 -9 9 C-6.03 6.03 -3.06 3.06 0 0 Z " fill="#0F78FD" transform="translate(259,251)"/>
<path d="M0 0 C3 1 3 1 4.16796875 3.06640625 C4.50441406 3.89011719 4.84085938 4.71382812 5.1875 5.5625 C5.53167969 6.38878906 5.87585938 7.21507812 6.23046875 8.06640625 C6.48441406 8.70449219 6.73835938 9.34257812 7 10 C2.81821924 8.20287108 1.75290594 6.20697425 0 2 C0 1.34 0 0.68 0 0 Z " fill="#3F90FB" transform="translate(16,218)"/>
<path d="M0 0 C1.15224028 0.92961422 2.29659176 1.8690125 3.4375 2.8125 C4.07558594 3.33457031 4.71367188 3.85664063 5.37109375 4.39453125 C7 6 7 6 8 9 C4.63704165 7.55873214 2.37072898 5.79407345 0 3 C0 2.01 0 1.02 0 0 Z " fill="#338AFC" transform="translate(41,252)"/>
</svg>
