<svg width="64" height="64" fill="none" xmlns="http://www.w3.org/2000/svg"><path d="M0 32c0 17.673 14.327 32 32 32 17.673 0 32-14.327 32-32C64 14.327 49.673 0 32 0 14.327 0 0 14.327 0 32Z" fill="#F0781B"/><path d="M31.899 26.098c-1.224 0-2.447-.611-3.06-1.832L19.868 9H43.93l-8.972 15.266c-.612 1.22-1.836 1.832-3.06 1.832ZM40.055 30.983c-1.224 0-2.447-.61-3.06-1.832-.61-1.221-.61-2.442 0-3.664l8.974-15.265L58 30.982H40.055ZM19.867 55l8.973-15.266c.612-1.22 1.835-1.831 3.059-1.831 1.223 0 2.447.61 3.059 1.831L43.93 55H19.867ZM36.996 38.513c-.612-1.221-.612-2.442 0-3.664.612-1.22 1.835-1.831 3.059-1.831h17.741l-12.031 20.76-8.77-15.265ZM6 30.983l12.032-20.761 8.972 15.265c.612 1.222.612 2.443 0 3.664s-1.835 1.832-3.059 1.832H6ZM6 33.018h17.741c1.224 0 2.448.61 3.06 1.831.611 1.222.611 2.443 0 3.664L17.827 53.78 6 33.018Z" fill="#fff"/></svg>