<svg width="100%" height="100%" viewBox="0 0 934 934" version="1.1" xmlns="http://www.w3.org/2000/svg" xmlns:xlink="http://www.w3.org/1999/xlink" xml:space="preserve" style="fill-rule:evenodd;clip-rule:evenodd;stroke-linejoin:round;stroke-miterlimit:2;">
    <g transform="matrix(0.18,0,0,0.18,-972.36,-6715.08)">
        <g id="Artboard9" transform="matrix(1,0,0,1,-0.676782,-0.0490098)">
            <rect x="5402.68" y="37306" width="5186.33" height="5186.33" style="fill:none;"/>
            <clipPath id="_clip1">
                <rect x="5402.68" y="37306" width="5186.33" height="5186.33"/>
            </clipPath>
            <g clip-path="url(#_clip1)">
                <g transform="matrix(0.449204,0,0,0.56597,3243.29,18499.8)">
                    <path d="M6939.01,40144.7C7038.73,39916.3 6305.09,39894.9 6193.64,39920.7C5534.05,40073 5651.8,41111.4 6143.67,41384.6C6347.76,41497.9 6661.24,41550.1 6892.58,41518.5C7342.86,41457 8003.07,41172.7 7772.72,40603.5C7720.84,40475.3 7657.85,40361.4 7557.59,40263.4C7359.06,40069.4 7065.67,40008.3 6810.47,39923.3" style="fill:rgb(217,105,0);"/>
                </g>
                <g transform="matrix(1,0,0,1,0.676782,0.0490098)">
                    <path d="M8960.79,37134.8C8833.72,37283.9 8504.86,37552.1 8532.67,37784.1C8566.68,38067.8 9099.99,38231.5 9307.29,38398.4C9699.15,38714.1 9819.74,39106.2 9862.17,39590.6C9912.81,40168.7 9772.12,40908.4 9479.33,41414.1C9319.07,41690.8 8924.76,42130.7 9135.72,42468.1C9415.3,42915.2 10642.8,42744.2 11033.1,42566.5C11616.7,42300.8 11886.5,41348.1 12036.9,40768C12275.7,39847.4 12456.1,38589 11900.1,37745.8C11770.6,37549.5 11595.4,37390.5 11406.2,37253C10997.2,36955.8 10480.6,36840.6 9979.97,36837.9" style="fill:rgb(235,182,0);"/>
                </g>
                <g transform="matrix(1,0,0,1,0.676782,0.0490098)">
                    <path d="M5064.47,38057.7C5200.05,37901.9 5401.3,37839.8 5598.8,37804.6C6259.06,37686.8 6793.07,38027.4 6592.86,38758.7C6523.5,39012.1 6345.78,39269.5 6135.11,39427.7C6011.46,39520.5 5862.44,39573.7 5711.06,39599.7C5574.95,39623 5421.84,39630.8 5290.64,39579.4C4963.37,39451.3 4701.57,39073.4 4763.88,38713.8C4811.75,38437.5 5031.37,38199.1 5269.51,38067.3" style="fill:rgb(235,133,0);"/>
                </g>
                <g transform="matrix(1,0,0,1,0.676782,0.0490098)">
                    <path d="M9107.18,41433.7C9520.43,41278.7 9944.02,40947.8 10045.4,40496.4C10077.2,40355 10053.2,40229.7 9938.78,40132.2C9830.66,40040.1 9680.98,40002.2 9541.18,40020.2C9221.36,40061.6 8734.19,40478.3 8503.82,40713.9C8383.16,40837.4 8276.34,40974 8150.64,41092.8C7921.13,41309.6 7433.48,41706.8 7143.14,41824.5C6897.59,41924.1 6613.3,41957.7 6349.61,41951.8C5938.31,41942.7 5249.9,41620.5 5026.57,42170.4C4970.25,42309 4959.7,42471.6 5016.24,42612C5253.15,43200.6 6336.17,42905.7 6775.98,42827.3C7884.57,42629.7 8891.36,42617 9590.74,41622.8C9779.55,41354.4 9917.99,41072.9 9945.69,40741.8" style="fill:white;"/>
                </g>
                <g transform="matrix(1,0,0,1,0.676782,0.0490098)">
                    <path d="M6848.84,37048.2C7382.13,37256.3 7184.95,38013.8 6653.3,37857.9C6534.16,37822.9 6431.03,37742.1 6367,37635.8C6073.12,37147.9 6773.38,36897.2 7140.41,36935.6" style="fill:rgb(217,0,92);"/>
                </g>
            </g>
        </g>
    </g>
</svg>
