<svg width="100%" height="100%" viewBox="0 0 5187 5187" version="1.1" xmlns="http://www.w3.org/2000/svg" xmlns:xlink="http://www.w3.org/1999/xlink" xml:space="preserve" style="fill-rule:evenodd;clip-rule:evenodd;stroke-linejoin:round;stroke-miterlimit:2;">
    <g transform="matrix(1,0,0,1,-5402,-37306)">
        <g id="Artboard9" transform="matrix(1,0,0,1,-0.676782,-0.0490098)">
            <rect x="5402.68" y="37306" width="5186.33" height="5186.33" style="fill:none;"/>
            <g transform="matrix(1.07393,0,0,0.930922,-657.862,2514)">
                <path d="M9027.74,37634.6C8965.83,37584.1 8847.16,37585.4 8771.56,37574.8C8353.82,37516.3 6936.94,37549.9 6904.17,38169.3C6880,38626.2 7653.11,38813.4 7944.99,39072.7C8046.78,39163.1 8125.9,39307.8 8165.45,39436.8C8203.16,39559.9 8213.04,39719.1 8195.81,39846.6C8133.11,40310.4 7542.75,41224.1 8337.73,41414C8442.68,41439.1 8553.71,41437.2 8660.88,41437.2C9172.01,41437.2 9479.13,41226.2 9836.48,40886.5C10010.8,40720.8 10139.1,40565.8 10230.1,40339.3C10404.3,39906 10415.2,39400 10323.9,38948.6C10289.2,38777.1 10273,38602.9 10231.9,38432.6C10190.2,38260 10019.7,37933.4 9869.5,37837.2C9759.69,37767 9628.57,37744.1 9502.61,37721.2" style="fill:rgb(235,182,0);"/>
            </g>
            <g transform="matrix(1.07393,0,0,1.22623,-402.403,-8576.09)">
                <path d="M6939.01,40144.7C7038.73,39916.3 6305.09,39894.9 6193.64,39920.7C5534.05,40073 5651.8,41111.4 6143.67,41384.6C6347.76,41497.9 6661.24,41550.1 6892.58,41518.5C7342.86,41457 8003.07,41172.7 7772.72,40603.5C7720.84,40475.3 7657.85,40361.4 7557.59,40263.4C7359.06,40069.4 7065.67,40008.3 6810.47,39923.3" style="fill:rgb(217,0,92);"/>
            </g>
            <g transform="matrix(1.31422,0,0,1.81797,-1973.72,-31720.8)">
                <path d="M7322.81,38731.7C6967.15,38498.1 6506.45,38441.8 6090.1,38432.6C5993.91,38430.5 5865,38412.6 5772.34,38446C5753.97,38452.6 5756.36,38486.5 5751.79,38502.3C5713.94,38632.8 5768.01,38720.5 5877.66,38794.1C6142.85,38972.3 6483.4,38992.5 6782.78,39078C6998.92,39139.8 7776.74,39468.4 7953.02,39424.3C8116.1,39383.6 7867.99,39055.5 7809.31,39006.6C7602.5,38834.2 7340.95,38743.2 7088.07,38662" style="fill:rgb(97,0,217);"/>
            </g>
        </g>
    </g>
</svg>
