<svg width="100%" height="100%" viewBox="0 0 877 184" version="1.1" xmlns="http://www.w3.org/2000/svg" xmlns:xlink="http://www.w3.org/1999/xlink" xml:space="preserve"  style="fill-rule:evenodd;clip-rule:evenodd;stroke-linejoin:round;stroke-miterlimit:2;"><rect id="Artboard12" x="0" y="0" width="876.26" height="183.404" style="fill:none;"/><clipPath id="_clip1"><rect x="0" y="0" width="876.26" height="183.404"/></clipPath><g clip-path="url(#_clip1)"><g><g><path d="M394.627,3.114l-71.42,177.324l-37.714,-0l-71.184,-177.324l41.249,-0l50.207,126.66l50.913,-126.66l37.949,-0Z" style="fill:#ebb600;fill-rule:nonzero;"/><path d="M486.319,183.477c-17.128,0 -32.567,-3.968 -46.317,-11.906c-13.75,-7.937 -24.514,-18.872 -32.293,-32.805c-7.778,-13.932 -11.667,-29.596 -11.667,-46.99c-0,-17.395 3.889,-33.059 11.667,-46.991c7.779,-13.933 18.543,-24.868 32.293,-32.805c13.75,-7.938 29.189,-11.906 46.317,-11.906c17.128,-0 32.528,3.968 46.199,11.906c13.671,7.937 24.436,18.872 32.293,32.805c7.857,13.932 11.785,29.596 11.785,46.991c0,17.394 -3.928,33.058 -11.785,46.99c-7.857,13.933 -18.622,24.868 -32.293,32.805c-13.671,7.938 -29.071,11.906 -46.199,11.906Zm-0,-34.958c9.743,0 18.543,-2.406 26.4,-7.219c7.857,-4.813 14.024,-11.526 18.503,-20.139c4.478,-8.613 6.718,-18.408 6.718,-29.385c-0,-10.978 -2.24,-20.773 -6.718,-29.386c-4.479,-8.612 -10.646,-15.325 -18.503,-20.138c-7.857,-4.814 -16.657,-7.22 -26.4,-7.22c-9.743,-0 -18.543,2.406 -26.4,7.22c-7.857,4.813 -14.024,11.526 -18.503,20.138c-4.478,8.613 -6.718,18.408 -6.718,29.386c0,10.977 2.24,20.772 6.718,29.385c4.479,8.613 10.646,15.326 18.503,20.139c7.857,4.813 16.657,7.219 26.4,7.219Z" style="fill:#ebb600;fill-rule:nonzero;"/><path d="M637.174,36.552l-52.799,-0l-0,-33.438l143.783,-0l0,33.438l-52.799,-0l-0,143.886l-38.185,-0l-0,-143.886Z" style="fill:#ebb600;fill-rule:nonzero;"/><path d="M876.42,147.506l0,32.932l-127.755,-0l-0,-177.324l124.691,-0l-0,32.931l-86.742,0l0,38.505l76.606,-0l0,31.918l-76.606,0l0,41.038l89.806,-0Z" style="fill:#ebb600;fill-rule:nonzero;"/></g><g><path d="M91.086,147.576c0.691,-1.234 1.996,-1.999 3.41,-1.999l25.98,0c2.765,0 5.519,-0.351 8.195,-1.046c23.864,-6.17 40.897,-27.79 40.897,-52.866c-0,-13.658 -5.053,-26.295 -13.511,-35.968c-10.002,-11.412 -24.44,-17.955 -39.615,-17.955c-8.549,-0.005 -22.258,-0.005 -27.098,-0.005c-0.467,-0 -0.915,-0.186 -1.245,-0.516c-0.331,-0.33 -0.516,-0.778 -0.516,-1.246c-0,-6.003 -0,-25.622 -0,-31.629c-0,-0.467 0.186,-0.916 0.516,-1.246c0.331,-0.33 0.78,-0.516 1.247,-0.515c6.331,0.007 28.09,0.034 38.602,0.046c4.731,0.006 9.434,0.726 13.95,2.136c37.714,11.727 63.941,46.757 63.941,86.898c0,26.539 -11.464,50.843 -30.132,67.655c-15.289,13.744 -35.117,21.356 -55.676,21.375c-15.229,0.023 -38.606,0.044 -45.523,0.051c-0.414,0 -0.798,-0.219 -1.007,-0.577c-0.21,-0.357 -0.215,-0.799 -0.012,-1.161c3.305,-5.903 14.083,-25.154 17.597,-31.432Z" style="fill:#ebb600;"/><path d="M45.862,112.394c-0,-0.628 -0.509,-1.137 -1.137,-1.137c-6.088,0 -34.855,0 -42.626,0c-0.403,0 -0.776,-0.213 -0.98,-0.561c-0.204,-0.348 -0.209,-0.778 -0.012,-1.13c6.776,-12.102 47.899,-85.554 57.768,-103.183c0.253,-0.451 0.778,-0.674 1.278,-0.544c0.501,0.131 0.85,0.583 0.85,1.1c-0,12.711 -0,49.298 -0,56.217c-0,0.627 0.509,1.136 1.136,1.136c6.088,-0 34.856,-0 42.626,-0c0.404,-0 0.777,0.214 0.981,0.562c0.204,0.348 0.208,0.777 0.011,1.129c-6.776,12.103 -47.898,85.555 -57.767,103.183c-0.253,0.451 -0.778,0.675 -1.279,0.544c-0.5,-0.13 -0.849,-0.582 -0.849,-1.099l-0,-56.217Z" style="fill:#ebb600;"/></g></g></g></svg>