<svg width="100%" height="100%" viewBox="0 0 3017 3017" version="1.1" xmlns="http://www.w3.org/2000/svg" xmlns:xlink="http://www.w3.org/1999/xlink" xml:space="preserve" style="fill-rule:evenodd;clip-rule:evenodd;stroke-linejoin:round;stroke-miterlimit:2;">
    <g transform="matrix(1,0,0,1,-363,-39330)">
        <g id="Artboard8" transform="matrix(1,0,0,1,-0.665589,-0.857651)">
            <rect x="363.666" y="39330.9" width="3016.07" height="3016.07" style="fill:none;"/>
            <g transform="matrix(1,0,0,1,0.665589,0.857651)">
                <rect x="363" y="39330" width="3016.07" height="3016.07" style="fill:rgb(235,182,0);"/>
            </g>
            <g transform="matrix(1,0,0,1,246.269,39182.2)">
                <g transform="matrix(1.51086,0,0,1.51086,-596.189,-666.361)">
                    <path d="M1373.61,1725.71C1373.61,1725.71 1319.82,2231.86 1302.27,2396.99C1301.62,2403.06 1305.16,2408.8 1310.88,2410.95C1316.6,2413.1 1323.04,2411.11 1326.56,2406.12C1448.97,2232.13 1913.16,1572.35 2038.61,1394.06C2044.69,1385.4 2045.45,1374.08 2040.58,1364.7C2035.71,1355.31 2026.01,1349.41 2015.43,1349.41C1885.24,1349.41 1567.26,1349.41 1567.26,1349.41C1567.26,1349.41 1621.05,843.267 1638.6,678.139C1639.25,672.066 1635.7,666.325 1629.99,664.177C1624.27,662.028 1617.83,664.016 1614.31,669.01C1491.9,842.998 1027.7,1502.78 902.265,1681.07C896.178,1689.72 895.417,1701.04 900.29,1710.43C905.164,1719.82 914.862,1725.71 925.44,1725.71C1055.63,1725.71 1373.61,1725.71 1373.61,1725.71Z"/>
                </g>
                <g transform="matrix(1,0,0,1,467.69,476.869)">
                    <circle cx="1908.62" cy="2319.31" r="238.241"/>
                </g>
            </g>
        </g>
    </g>
</svg>
