<svg width="100%" height="100%" viewBox="0 0 3141 567" version="1.1" xmlns="http://www.w3.org/2000/svg" xmlns:xlink="http://www.w3.org/1999/xlink" style="fill-rule:evenodd;clip-rule:evenodd;stroke-linejoin:round;stroke-miterlimit:2;"><rect id="Artboard1" x="0" y="0" width="3140.76" height="566.929" style="fill:none;"/><g><path d="M405.707,185.615c-0,-82.921 -67.221,-150.142 -150.142,-150.142l-0,-0c-82.921,-0 -150.142,67.221 -150.142,150.142l-0,152.816c-0,82.921 67.221,150.142 150.142,150.142l-0,-0c82.921,-0 150.142,-67.221 150.142,-150.142l-0,-152.816Zm-167.571,110.275c-0,-0 -8.768,82.504 -12.339,116.101c-0.175,1.652 0.788,3.213 2.343,3.797c1.554,0.585 3.307,0.044 4.263,-1.314c24.462,-34.769 97.497,-138.576 122.544,-174.177c1.656,-2.353 1.863,-5.432 0.537,-7.985c-1.325,-2.553 -3.962,-4.156 -6.839,-4.156c-25.674,0 -75.651,0 -75.651,0c0,0 8.768,-82.504 12.338,-116.102c0.176,-1.651 -0.787,-3.212 -2.342,-3.797c-1.555,-0.584 -3.307,-0.043 -4.263,1.315c-24.463,34.769 -97.497,138.576 -122.545,174.177c-1.655,2.353 -1.862,5.432 -0.537,7.985c1.326,2.553 3.963,4.156 6.84,4.156c25.674,-0 75.651,-0 75.651,-0Z" style="fill:#ebb600;"/><circle cx="418.623" cy="488.573" r="42.883" style="fill:#ebb600;"/></g><path d="M641.423,451.697c-46.9,0 -83.403,-12.975 -109.511,-38.927c-26.108,-25.951 -39.162,-63.002 -39.162,-111.153l0,-183.848l75.978,0l0,181.034c0,58.782 24.388,88.172 73.164,88.172c23.763,0 41.898,-7.113 54.404,-21.339c12.507,-14.227 18.76,-36.504 18.76,-66.833l0,-181.034l75.04,0l0,183.848c0,48.151 -13.053,85.202 -39.161,111.153c-26.108,25.952 -62.612,38.927 -109.512,38.927Z" style="fill:#ebb600;fill-rule:nonzero;"/><rect x="865.136" y="117.769" width="75.978" height="328.3" style="fill:#ebb600;fill-rule:nonzero;"/><path d="M1176.08,451.697c-33.455,0 -63.705,-7.269 -90.751,-21.808c-27.046,-14.539 -48.307,-34.706 -63.784,-60.501c-15.477,-25.795 -23.216,-54.951 -23.216,-87.469c0,-32.517 7.739,-61.673 23.216,-87.468c15.477,-25.795 36.738,-45.962 63.784,-60.501c27.046,-14.539 57.452,-21.809 91.22,-21.809c28.453,0 54.17,5.003 77.151,15.008c22.981,10.006 42.288,24.388 57.921,43.148l-48.776,45.024c-22.199,-25.638 -49.714,-38.458 -82.544,-38.458c-20.323,0 -38.458,4.456 -54.404,13.367c-15.946,8.911 -28.374,21.339 -37.285,37.285c-8.911,15.946 -13.367,34.081 -13.367,54.404c0,20.324 4.456,38.458 13.367,54.404c8.911,15.946 21.339,28.375 37.285,37.286c15.946,8.911 34.081,13.366 54.404,13.366c32.83,0 60.345,-12.975 82.544,-38.927l48.776,45.024c-15.633,19.073 -35.018,33.612 -58.156,43.617c-23.137,10.006 -48.932,15.008 -77.385,15.008Z" style="fill:#ebb600;fill-rule:nonzero;"/><path d="M1482.34,317.094l-44.086,45.962l0,83.013l-75.509,0l0,-328.3l75.509,0l0,153.363l145.39,-153.363l84.42,0l-136.01,146.328l143.983,181.972l-88.641,0l-105.056,-128.975Z" style="fill:#ebb600;fill-rule:nonzero;"/><path d="M1810.64,451.697c-25.951,0 -51.042,-3.517 -75.274,-10.552c-24.232,-7.035 -43.695,-16.181 -58.391,-27.437l25.795,-57.218c14.07,10.318 30.798,18.604 50.183,24.857c19.386,6.254 38.771,9.38 58.156,9.38c21.574,0 37.52,-3.205 47.838,-9.614c10.318,-6.41 15.477,-14.93 15.477,-25.561c0,-7.816 -3.048,-14.304 -9.145,-19.463c-6.097,-5.159 -13.914,-9.302 -23.45,-12.429c-9.536,-3.126 -22.434,-6.566 -38.693,-10.318c-25.013,-5.94 -45.493,-11.881 -61.439,-17.822c-15.946,-5.94 -29.625,-15.477 -41.037,-28.609c-11.412,-13.132 -17.119,-30.641 -17.119,-52.528c0,-19.072 5.159,-36.347 15.477,-51.824c10.318,-15.477 25.874,-27.749 46.666,-36.817c20.792,-9.067 46.196,-13.601 76.212,-13.601c20.949,0 41.429,2.502 61.439,7.504c20.011,5.003 37.52,12.194 52.528,21.574l-23.45,57.687c-30.328,-17.196 -60.657,-25.795 -90.986,-25.795c-21.261,0 -36.972,3.44 -47.134,10.318c-10.162,6.879 -15.243,15.946 -15.243,27.202c0,11.256 5.863,19.62 17.588,25.092c11.725,5.471 29.625,10.865 53.7,16.18c25.014,5.941 45.493,11.882 61.439,17.822c15.946,5.941 29.626,15.321 41.038,28.14c11.412,12.82 17.118,30.173 17.118,52.059c0,18.76 -5.237,35.879 -15.711,51.356c-10.474,15.477 -26.186,27.749 -47.135,36.816c-20.948,9.068 -46.431,13.601 -76.447,13.601Z" style="fill:#ebb600;fill-rule:nonzero;"/><path d="M2303.09,117.769l0,328.3l-62.377,0l-163.681,-199.325l0,199.325l-75.04,0l0,-328.3l62.846,0l163.212,199.325l0,-199.325l75.04,0Z" style="fill:#ebb600;fill-rule:nonzero;"/><path d="M2597.15,375.719l-152.425,0l-29.078,70.35l-77.854,0l146.328,-328.3l75.04,0l146.797,328.3l-79.73,0l-29.078,-70.35Zm-23.919,-57.687l-52.059,-125.692l-52.059,125.692l104.118,0Z" style="fill:#ebb600;fill-rule:nonzero;"/><path d="M2882.3,117.769c29.078,0 54.326,4.847 75.744,14.539c21.418,9.693 37.911,23.45 49.479,41.272c11.569,17.822 17.353,38.927 17.353,63.315c0,24.076 -5.784,45.102 -17.353,63.081c-11.568,17.978 -28.061,31.735 -49.479,41.272c-21.418,9.536 -46.666,14.304 -75.744,14.304l-66.129,0l0,90.517l-75.978,0l0,-328.3l142.107,0Zm-4.221,175.875c22.825,0 40.178,-4.924 52.059,-14.773c11.882,-9.849 17.822,-23.841 17.822,-41.976c0,-18.447 -5.94,-32.595 -17.822,-42.444c-11.881,-9.849 -29.234,-14.774 -52.059,-14.774l-61.908,0l0,113.967l61.908,0Z" style="fill:#ebb600;fill-rule:nonzero;"/></svg>