<?xml version="1.0" encoding="UTF-8"?>
<svg version="1.1" xmlns="http://www.w3.org/2000/svg" width="512" height="512">
<path d="M0 0 C6.71901437 3.85395146 6.71901437 3.85395146 14.0234375 3.890625 C16.35803184 2.33432089 16.35803184 2.33432089 18.38671875 0.4375 C22.65266186 -3.33060669 28.66200977 -3.71457971 34.19921875 -3.51953125 C43.68571907 -2.44033305 51.06173705 1.55183059 57.15234375 8.93359375 C62.72403406 16.83918823 63.93267492 24.19045057 63.328125 33.72265625 C63.09867187 34.58890625 62.86921875 35.45515625 62.6328125 36.34765625 C62.0658311 38.73764354 62.0658311 38.73764354 63.48046875 40.49609375 C64.36412109 41.28886719 64.36412109 41.28886719 65.265625 42.09765625 C65.9153125 42.68160156 66.565 43.26554687 67.234375 43.8671875 C67.9253125 44.47949219 68.61625 45.09179688 69.328125 45.72265625 C69.9778125 46.40714844 70.6275 47.09164062 71.296875 47.796875 C73.22711232 49.7462615 74.95666325 51.34006658 77.328125 52.72265625 C80.8879141 52.32917995 80.8879141 52.32917995 83.13671875 51.4296875 C90.13444802 49.1719531 97.41707122 50.43104859 103.9765625 53.3984375 C112.0934807 57.96926021 117.24227994 64.45838062 120.640625 73.03515625 C122.56498396 83.35671793 120.84250465 90.83201043 116.12915039 100.07348633 C115.07184479 102.66788294 115.07184479 102.66788294 116.05981445 105.02075195 C116.74370239 106.1977063 116.74370239 106.1977063 117.44140625 107.3984375 C117.94333496 108.2963501 118.44526367 109.1942627 118.96240234 110.11938477 C119.51621582 111.08158936 120.0700293 112.04379395 120.640625 113.03515625 C137.38754174 143.63226526 147.25347835 179.61776701 147.56640625 214.59375 C147.5762001 215.50555023 147.58599396 216.41735046 147.59608459 217.35678101 C147.76776136 237.48473307 147.60448494 256.96157743 143.328125 276.72265625 C143.11381836 277.73972656 142.89951172 278.75679688 142.67871094 279.8046875 C133.36151556 322.93231676 112.79125712 362.76378933 82.328125 394.72265625 C81.11167072 396.13235582 79.90241604 397.54832662 78.703125 398.97265625 C74.95811307 403.30994501 70.68171784 407.01074943 66.328125 410.72265625 C66.4725 411.26792969 66.616875 411.81320312 66.765625 412.375 C69.22335115 422.35951249 69.09320455 430.38094663 64.328125 439.72265625 C59.27869858 447.23862277 52.65372761 452.21656039 43.78515625 454.328125 C35.5592426 455.64897918 28.86780799 454.3175771 21.328125 450.72265625 C20.4 449.93890625 19.471875 449.15515625 18.515625 448.34765625 C17.79375 447.81140625 17.071875 447.27515625 16.328125 446.72265625 C11.91154678 447.81507241 7.90469844 449.80643069 3.80908203 451.74316406 C-53.61524734 478.75441129 -121.97763643 479.75738595 -181.44116211 458.91772461 C-188.75779385 456.23652234 -195.77611976 453.01457752 -202.64819336 449.34057617 C-206.84708935 447.06426255 -206.84708935 447.06426255 -211.45703125 447.34765625 C-212.18792969 447.80140625 -212.91882813 448.25515625 -213.671875 448.72265625 C-221.78798289 453.30783885 -229.55862787 453.79318829 -238.671875 452.72265625 C-242.39683911 451.52669696 -245.45094243 449.92511212 -248.671875 447.72265625 C-249.6 447.10390625 -250.528125 446.48515625 -251.484375 445.84765625 C-258.03885193 439.48045009 -261.75796062 431.86792504 -261.921875 422.59765625 C-261.671875 418.72265625 -261.671875 418.72265625 -261.15625 416.6953125 C-260.51992925 414.37040633 -260.51992925 414.37040633 -260.671875 410.72265625 C-262.31634665 408.66353272 -264.13920189 407.22843415 -266.2265625 405.62109375 C-274.52478577 399.17870316 -281.21387616 390.93687508 -287.671875 382.72265625 C-288.45175781 381.75972656 -289.23164063 380.79679687 -290.03515625 379.8046875 C-324.45705966 336.48908655 -344.20440866 280.14929045 -342.671875 224.72265625 C-344.033125 224.55443359 -344.033125 224.55443359 -345.421875 224.3828125 C-352.5729549 222.9302494 -357.22773351 217.50251076 -361.4453125 211.84765625 C-366.01264143 203.9348316 -366.022892 193.43344162 -363.94921875 184.66796875 C-360.77745558 176.2184944 -355.72327551 170.79445231 -347.671875 166.72265625 C-343.131772 165.07882585 -339.46114722 164.64887194 -334.671875 164.72265625 C-334.41277344 163.42521484 -334.41277344 163.42521484 -334.1484375 162.1015625 C-329.17248158 139.80106282 -319.29167277 109.34245402 -302.671875 92.72265625 C-298.3174169 92.22021878 -296.33773971 92.24096689 -292.734375 94.84765625 C-290.18016658 98.40806799 -290.08470946 99.40209649 -290.671875 103.72265625 C-292.2367594 107.2197688 -294.17559513 110.48125302 -296.109375 113.78515625 C-303.98016423 127.74003529 -310.34229709 142.04402877 -315.296875 157.28515625 C-315.55710449 158.07688232 -315.81733398 158.8686084 -316.08544922 159.68432617 C-317.65636809 164.72077067 -317.65636809 164.72077067 -316.671875 169.72265625 C-315.25968001 170.94655857 -313.8436125 172.17178565 -312.33984375 173.28125 C-310.13146909 175.18965807 -308.47285113 177.43322477 -306.671875 179.72265625 C-305.75414307 179.55660889 -304.83641113 179.39056152 -303.89086914 179.21948242 C-273.88353507 173.85045467 -244.24421315 169.85601779 -213.671875 170.72265625 C-213.38441406 169.95953125 -213.09695312 169.19640625 -212.80078125 168.41015625 C-209.34660911 160.18707518 -202.66270357 156.80160384 -194.79296875 153.5234375 C-191.18671773 152.5981791 -188.82484787 153.07550989 -185.171875 153.66015625 C-181.44653348 153.72682026 -178.84705113 153.6499782 -175.85449219 151.28857422 C-171.90707439 147.19315526 -168.60852613 142.58227034 -165.30078125 137.96630859 C-163.02013004 134.82494399 -160.57444929 131.85449021 -158.046875 128.91015625 C-157.58514893 128.36810547 -157.12342285 127.82605469 -156.64770508 127.26757812 C-139.03677196 106.98884732 -139.03677196 106.98884732 -128.94140625 99.77026367 C-126.50696038 97.93332503 -126.50696038 97.93332503 -125.97045898 95.33178711 C-125.53158085 83.259425 -125.53158085 83.259425 -130.42919922 72.71630859 C-135.11547286 69.13733112 -140.43836445 66.94563367 -145.90380859 64.81835938 C-148.5240393 63.78117509 -151.03499027 62.63057622 -153.56640625 61.39453125 C-165.72729367 55.5112308 -178.41321897 50.9897701 -191.17089844 46.58642578 C-193.16894574 45.89635439 -195.15996361 45.18594114 -197.1484375 44.46875 C-199.87261278 43.53363471 -199.87261278 43.53363471 -203.671875 43.72265625 C-204.89736796 45.41184924 -206.11582644 47.10733341 -207.2734375 48.84375 C-211.76020257 54.87205726 -218.49203568 57.35806691 -225.671875 58.72265625 C-232.80362037 59.55808928 -238.06813948 58.63491831 -244.48046875 55.40234375 C-246.65773272 54.49103073 -246.65773272 54.49103073 -248.73828125 55.4296875 C-253.6165926 58.69175024 -257.76600976 62.6512519 -261.6484375 67.0390625 C-262.42864258 67.91630981 -262.42864258 67.91630981 -263.22460938 68.8112793 C-264.25744203 69.98476323 -265.27750825 71.16963192 -266.28320312 72.36645508 C-268.69443111 75.11136538 -270.33369782 76.62095505 -273.8671875 77.68359375 C-277.38682753 77.73261381 -278.91693698 76.86538582 -281.671875 74.72265625 C-283.671875 71.72265625 -283.671875 71.72265625 -283.64453125 68.4375 C-282.42768444 63.79002482 -280.44711875 61.60572378 -277.109375 58.28515625 C-276.56869385 57.72530029 -276.0280127 57.16544434 -275.47094727 56.58862305 C-273.884646 54.95281617 -272.2800084 53.33695896 -270.671875 51.72265625 C-269.8571875 50.8821875 -269.0425 50.04171875 -268.203125 49.17578125 C-265.44651236 46.3574534 -262.9623978 43.91633812 -259.671875 41.72265625 C-259.81625 41.09359375 -259.960625 40.46453125 -260.109375 39.81640625 C-262.31600547 29.64138797 -262.66049572 20.93285524 -257.453125 11.51953125 C-252.04644719 3.64981133 -243.95765141 -1.28040259 -234.671875 -3.27734375 C-227.62511515 -3.94846374 -220.31643765 -2.93322185 -214.46875 1.328125 C-213.16397125 2.41627064 -211.88854872 3.54134425 -210.65625 4.7109375 C-208.61872347 6.01436926 -208.61872347 6.01436926 -205.9375 5.12109375 C-202.88734915 3.81492867 -199.86773669 2.46730117 -196.86425781 1.05786133 C-138.4468606 -26.19274858 -58.41246238 -29.3443518 0 0 Z M-200.671875 20.72265625 C-200.341875 22.70265625 -200.011875 24.68265625 -199.671875 26.72265625 C-198.99012207 26.93768799 -198.30836914 27.15271973 -197.60595703 27.37426758 C-172.61530474 35.32015243 -148.9764203 44.96625066 -125.93823242 57.56860352 C-123.54377255 58.78788735 -121.22349898 59.87414465 -118.671875 60.72265625 C-116.31762983 59.72025672 -116.31762983 59.72025672 -114.109375 57.97265625 C-106.83096189 53.26436528 -99.47880423 52.06611931 -90.921875 53.28515625 C-86.46808581 54.26203353 -83.10011164 55.92715788 -79.42578125 58.6015625 C-77.36402865 59.91943109 -76.12957097 60.55160781 -73.671875 60.72265625 C-70.94729239 59.480949 -70.94729239 59.480949 -67.984375 57.53515625 C-46.26593627 44.51174346 -22.64978611 35.60615013 1.328125 27.72265625 C1.658125 24.75265625 1.988125 21.78265625 2.328125 18.72265625 C-20.73486807 8.51054584 -43.6298152 1.13099073 -68.671875 -2.27734375 C-69.41832275 -2.38046875 -70.16477051 -2.48359375 -70.93383789 -2.58984375 C-115.41959175 -7.8863298 -160.77178722 0.82429641 -200.671875 20.72265625 Z M19.890625 19.59765625 C17.50792182 24.3630626 16.78331786 27.68578299 18.390625 32.78515625 C20.17341446 37.07370969 22.52878883 39.11061264 26.328125 41.72265625 C30.3954241 43.07842262 34.06065351 43.50846057 38.19921875 42.07421875 C42.86761344 39.72496207 45.58506202 36.66133469 47.328125 31.72265625 C47.97159006 26.48301218 47.20831493 23.13894748 44.328125 18.72265625 C40.67638361 14.90106643 37.65137844 12.86847161 32.4140625 12.52734375 C27.01872428 13.03252523 23.32685878 15.54466256 19.890625 19.59765625 Z M-242.046875 17.84765625 C-245.02220676 23.11170476 -246.24939678 27.55694956 -244.671875 33.47265625 C-242.06743846 37.70486563 -239.17873313 40.46922719 -234.671875 42.72265625 C-229.44704883 43.16543813 -225.67370018 43.02144106 -221.21875 40.109375 C-217.66873517 36.92691221 -215.91602606 33.17258582 -215.4453125 28.44921875 C-215.67208955 23.33801288 -217.23398689 19.77404142 -220.8046875 16.109375 C-227.83513626 10.88801661 -235.78941276 12.24887424 -242.046875 17.84765625 Z M-60.71020508 70.64941406 C-62.671875 71.72265625 -62.671875 71.72265625 -65.734375 73.08203125 C-68.04578548 74.66408391 -68.04578548 74.66408391 -68.08984375 78.05078125 C-68.01378906 79.345 -67.93773437 80.63921875 -67.859375 81.97265625 C-67.56462438 87.51174342 -67.93003888 91.53077407 -69.671875 96.72265625 C-65.83051587 100.65596281 -61.97738174 104.52289641 -57.796875 108.09765625 C-50.13618383 114.70481425 -43.2103986 122.01750811 -36.671875 129.72265625 C-35.88554687 130.61984375 -35.09921875 131.51703125 -34.2890625 132.44140625 C-16.65053378 152.69877017 -2.39317051 175.13305812 10.328125 198.72265625 C11.05334119 200.06122188 11.77859995 201.39976445 12.50390625 202.73828125 C14.12216332 205.72779155 15.72472111 208.72498812 17.328125 211.72265625 C21.618125 211.72265625 25.908125 211.72265625 30.328125 211.72265625 C48.87960964 178.9985907 63.82727864 145.59615715 75.328125 109.72265625 C74.56757813 108.96597656 73.80703125 108.20929688 73.0234375 107.4296875 C65.43024632 99.80348245 61.12076794 93.42946684 60.25390625 82.44921875 C60.43404716 75.83141049 62.38893566 69.60103493 65.328125 63.72265625 C61.038125 59.76265625 56.748125 55.80265625 52.328125 51.72265625 C50.760625 52.52703125 49.193125 53.33140625 47.578125 54.16015625 C39.88215743 58.10940276 32.13944586 59.10471823 23.6015625 57.07421875 C16.39366002 54.4633067 10.58939826 50.11456613 6.328125 43.72265625 C-15.44167282 43.72265625 -42.2359408 60.27258929 -60.71020508 70.64941406 Z M79.078125 71.34765625 C75.69158183 75.94367912 75.10348434 80.8292564 75.765625 86.41015625 C77.81554621 90.75598921 80.13911085 93.35046831 84.328125 95.72265625 C88.75960172 97.09979919 92.17189785 97.10065359 96.578125 95.66015625 C100.5865638 92.83602892 103.57671725 90.29496008 104.96484375 85.54296875 C105.76414003 80.43778608 105.38514816 77.06165686 102.328125 72.72265625 C98.3486609 68.45894472 95.34585928 66.9295818 89.50390625 66.5859375 C85.21246401 66.85559725 82.45778898 68.90678782 79.078125 71.34765625 Z M-110.171875 74.34765625 C-112.20964029 78.93262816 -112.46038113 82.78242395 -111.671875 87.72265625 C-109.3423147 92.56097381 -106.47063579 95.32327585 -101.671875 97.72265625 C-96.34384425 98.67104572 -92.21952471 97.71997083 -87.671875 94.72265625 C-83.57932298 90.29827569 -82.30139881 86.85978447 -82.390625 80.78125 C-83.00150934 76.309916 -85.89379339 73.52235123 -88.921875 70.41015625 C-96.95392709 65.48139701 -104.04115067 67.91039571 -110.171875 74.34765625 Z M-114.671875 108.72265625 C-133.00142578 125.44491089 -133.00142578 125.44491089 -149.46875 143.94921875 C-151.07742026 145.97431784 -152.7036383 147.96166983 -154.375 149.93359375 C-154.83044189 150.47169678 -155.28588379 151.0097998 -155.75512695 151.56420898 C-157.0372608 153.07517148 -158.32130817 154.58450964 -159.60546875 156.09375 C-162.08816553 159.18300546 -162.08816553 159.18300546 -163.671875 162.72265625 C-162.38160314 167.24561116 -160.05348283 170.49082683 -156.671875 173.72265625 C-152.0827509 175.53858598 -147.61557147 176.21875742 -142.73046875 176.77264404 C-140.3746582 177.04052531 -138.03345253 177.36625201 -135.6875 177.70947266 C-133.29642465 178.05924759 -130.9054847 178.40635551 -128.51159668 178.73638916 C-91.72632443 183.81767515 -55.09552846 196.2537858 -21.36279297 211.50732422 C-17.80806981 213.1127871 -14.24078961 214.6892999 -10.67382812 216.26733398 C-7.33660933 217.74523562 -4.00403043 219.23337829 -0.671875 220.72265625 C0.318125 219.40265625 1.308125 218.08265625 2.328125 216.72265625 C-12.83707352 186.59950066 -30.81933478 159.55687431 -53.671875 134.72265625 C-55.21452427 132.99436614 -56.75618357 131.26519191 -58.296875 129.53515625 C-65.09100563 121.99920546 -72.18911628 114.37782873 -80.671875 108.72265625 C-83.05367578 109.37900518 -83.05367578 109.37900518 -85.609375 110.59765625 C-95.9998662 114.6224315 -104.6671139 113.13420445 -114.671875 108.72265625 Z M95.265625 111.72265625 C93.88697266 112.00109375 93.88697266 112.00109375 92.48046875 112.28515625 C91.41505859 112.50171875 91.41505859 112.50171875 90.328125 112.72265625 C89.96013794 113.87374878 89.96013794 113.87374878 89.5847168 115.0480957 C77.8486476 151.54074034 63.40509974 186.95669955 43.328125 219.72265625 C43.94300781 220.66625 43.94300781 220.66625 44.5703125 221.62890625 C52.03222679 233.48228206 52.03222679 233.48228206 50.8046875 240.875 C50.24847347 245.00101394 50.15138547 247.70284532 51.328125 251.72265625 C55.62768819 256.56754326 61.51135646 259.8079811 66.95996094 263.20410156 C70.33155944 265.36609565 73.45680574 267.78042176 76.578125 270.28515625 C77.13612793 270.72738525 77.69413086 271.16961426 78.26904297 271.62524414 C88.27847052 279.61043982 97.85500809 288.11353698 107.328125 296.72265625 C109.20235461 298.41101185 111.07734141 300.09852731 112.953125 301.78515625 C114.41145833 303.09765625 115.86979167 304.41015625 117.328125 305.72265625 C120.73444162 302.31633963 121.38740635 297.5234659 122.703125 292.97265625 C123.01330566 291.9045874 123.32348633 290.83651855 123.64306641 289.73608398 C140.03302901 231.64372307 132.75660006 167.73976318 103.66430664 114.83349609 C102.89379867 113.45857767 102.11244653 112.08974182 101.328125 110.72265625 C99.29030351 110.72265625 97.25317581 111.32011431 95.265625 111.72265625 Z M-197.671875 173.72265625 C-200.78195509 178.09620638 -201.55856334 182.45348533 -200.671875 187.72265625 C-199.23373253 192.1818024 -196.97951325 194.890313 -192.921875 197.22265625 C-188.61878227 199.07826501 -185.1177025 199.15857569 -180.671875 197.72265625 C-176.33923843 195.43371617 -173.47565038 193.33230443 -171.671875 188.72265625 C-170.99886282 183.76230723 -171.11650401 179.9222576 -173.234375 175.34765625 C-177.10031884 171.18433211 -180.47623711 169.08194245 -186.109375 168.16015625 C-190.83431758 168.90619982 -194.046395 170.62793346 -197.671875 173.72265625 Z M-346.984375 187.03515625 C-349.42696461 190.92520636 -350.19456254 194.25261069 -349.23046875 198.80859375 C-347.36833778 204.53331638 -344.55944635 207.12689313 -339.296875 210.03515625 C-334.81960502 211.20777458 -331.13197921 210.40177449 -326.984375 208.47265625 C-322.83143344 205.32988966 -320.56200086 202.58178751 -319.671875 197.41015625 C-319.33680243 192.38406776 -320.56275221 188.68053382 -323.671875 184.72265625 C-326.96752367 181.76822373 -330.3329959 180.49195669 -334.734375 180.22265625 C-340.3136674 180.93113782 -343.08217857 183.13295982 -346.984375 187.03515625 Z M-249.484375 188.41015625 C-250.29183167 188.49680542 -251.09928833 188.58345459 -251.93121338 188.67272949 C-269.24991792 190.53380601 -286.46659134 193.02025567 -303.671875 195.72265625 C-303.8587085 196.60381104 -304.04554199 197.48496582 -304.23803711 198.39282227 C-304.49335205 199.55483154 -304.74866699 200.71684082 -305.01171875 201.9140625 C-305.26042725 203.06334229 -305.50913574 204.21262207 -305.76538086 205.39672852 C-307.76149642 212.72047812 -311.36653481 217.22050748 -317.796875 221.16015625 C-320.71835287 222.75741284 -323.69386234 224.23443506 -326.671875 225.72265625 C-327.50221673 261.4079273 -316.32443779 298.00874427 -300.671875 329.72265625 C-300.09034668 330.9122998 -300.09034668 330.9122998 -299.49707031 332.12597656 C-289.19081086 353.01704302 -276.0056789 371.80567718 -260.296875 388.97265625 C-259.71373535 389.6174292 -259.1305957 390.26220215 -258.52978516 390.92651367 C-254.34557719 395.58774275 -254.34557719 395.58774275 -248.671875 397.72265625 C-245.18461698 396.59453562 -245.18461698 396.59453562 -242.671875 393.72265625 C-242.36984084 390.46132992 -242.43131041 387.98814101 -242.796875 384.78515625 C-242.94809418 382.88593732 -243.09223445 380.98614566 -243.23046875 379.0859375 C-243.30894043 378.06193848 -243.38741211 377.03793945 -243.46826172 375.98291016 C-246.83986029 321.99690617 -236.11355854 266.73108682 -213.8359375 217.5859375 C-213.11210586 215.96594844 -212.39060919 214.3449133 -211.671875 212.72265625 C-211.33236816 211.97016602 -210.99286133 211.21767578 -210.64306641 210.44238281 C-208.91700762 206.58761035 -208.91700762 206.58761035 -209.3671875 202.54296875 C-209.83898437 201.98351562 -210.31078125 201.4240625 -210.796875 200.84765625 C-214.07024105 196.44221455 -215.29687052 191.9744695 -216.671875 186.72265625 C-227.74054151 186.47532881 -238.49048263 187.19372424 -249.484375 188.41015625 Z M-155.671875 189.72265625 C-156.04699219 190.53089844 -156.42210937 191.33914062 -156.80859375 192.171875 C-161.74297509 202.4756587 -167.22915437 208.65800658 -177.859375 213.03515625 C-183.46214485 214.0454918 -188.9952636 213.87630889 -194.671875 213.72265625 C-213.88957592 249.33038547 -223.71289245 289.66753204 -227.671875 329.72265625 C-227.86910156 331.63884766 -227.86910156 331.63884766 -228.0703125 333.59375 C-229.53588539 351.04198941 -229.62495198 369.31374787 -227.671875 386.72265625 C-227.5996875 387.63402344 -227.5275 388.54539062 -227.453125 389.484375 C-226.88514385 391.93475571 -226.88514385 391.93475571 -224.44921875 392.875 C-223.04349609 393.26365234 -223.04349609 393.26365234 -221.609375 393.66015625 C-214.91460806 395.80457379 -209.61907328 398.80185883 -205.671875 404.72265625 C-154.18689898 399.40864011 -93.78205572 351.10154159 -57.296875 317.13671875 C-55.24193002 315.24690328 -53.1607782 313.42250034 -51.04296875 311.60546875 C-46.22234229 307.39971235 -41.68541138 302.92227035 -37.16333008 298.39941406 C-35.74519216 296.98345678 -34.31890835 295.57567336 -32.89257812 294.16796875 C-27.44172506 288.72847952 -22.40283162 283.12982385 -17.59448242 277.11523438 C-14.76099405 273.58911551 -11.70253527 270.3182384 -8.6171875 267.01171875 C-6.59968705 264.6377122 -4.9638714 262.56504834 -3.671875 259.72265625 C-4.13044113 257.37603852 -4.13044113 257.37603852 -5.421875 255.22265625 C-8.15253527 250.05260614 -8.80464687 245.74272121 -8.734375 239.91015625 C-8.72535156 238.93433594 -8.71632813 237.95851563 -8.70703125 236.953125 C-8.68962891 235.84904297 -8.68962891 235.84904297 -8.671875 234.72265625 C-53.55640727 211.05996476 -105.09608428 194.77491715 -155.671875 189.72265625 Z M9.328125 232.72265625 C6.60741973 237.22882436 5.83657973 240.71109862 6.75390625 245.80078125 C7.99517209 249.95522201 10.24776831 252.76940035 13.453125 255.59765625 C17.78073677 257.29106955 21.74555116 257.36259834 26.328125 256.72265625 C31.20073376 254.55705236 33.58240883 251.6361303 35.69921875 246.87109375 C37.18479487 241.79614426 35.98945814 237.9744654 33.578125 233.41015625 C30.64224913 229.90341562 28.64099515 228.07666699 24.03125 227.37109375 C17.82599657 227.01382158 13.58420381 228.05393823 9.328125 232.72265625 Z M38.328125 267.72265625 C39.14229828 275.4573024 40.81476235 282.94437287 42.51171875 290.52734375 C43.63791613 295.73850561 44.5978108 300.94322452 45.234375 306.23828125 C45.35103516 307.19508789 45.46769531 308.15189453 45.58789062 309.13769531 C45.328125 311.72265625 45.328125 311.72265625 43.55664062 314.03808594 C40.38004304 316.43932644 38.20595743 316.21619856 34.328125 315.72265625 C31.76071169 313.97263929 31.32385818 312.70726556 30.484375 309.67919922 C30.2678125 308.45346191 30.05125 307.22772461 29.828125 305.96484375 C29.70630859 305.30235626 29.58449219 304.63986877 29.45898438 303.95730591 C29.0708607 301.83926399 28.69837659 299.71888935 28.328125 297.59765625 C27.83638789 294.82267105 27.33700934 292.04923644 26.828125 289.27734375 C26.64576294 288.28296295 26.64576294 288.28296295 26.4597168 287.26849365 C25.50001688 282.22120058 24.12635712 277.52864566 22.328125 272.72265625 C17.52273607 271.03081814 13.42233963 270.1566324 8.328125 270.72265625 C3.94678925 273.52494509 1.13981751 278.11470293 -1.8359375 282.27709961 C-9.57807738 292.59000056 -18.52064466 301.87613591 -27.67333984 310.92993164 C-29.4404821 312.67856849 -31.19924115 314.43532615 -32.95703125 316.19335938 C-38.69383663 321.91235484 -44.47667164 327.49624639 -50.671875 332.72265625 C-51.63609375 333.56828125 -52.6003125 334.41390625 -53.59375 335.28515625 C-63.2421873 343.60093647 -73.39688445 351.20155742 -83.671875 358.72265625 C-84.79480957 359.54564209 -84.79480957 359.54564209 -85.94042969 360.38525391 C-96.5083218 368.09031216 -107.40129499 375.0929033 -118.671875 381.72265625 C-119.49171875 382.20734375 -120.3115625 382.69203125 -121.15625 383.19140625 C-143.14255887 396.14039797 -165.79816159 406.71829985 -189.38061523 416.36328125 C-192.82501106 417.78590539 -196.24958304 419.2477875 -199.671875 420.72265625 C-200.001875 424.68265625 -200.331875 428.64265625 -200.671875 432.72265625 C-168.85813766 449.19041592 -133.57697785 457.18464805 -97.859375 457.09765625 C-97.01181641 457.09711243 -96.16425781 457.0965686 -95.29101562 457.0960083 C-59.40341664 456.99084256 -24.36773499 448.76916919 7.328125 431.72265625 C7.28171875 430.91183594 7.2353125 430.10101563 7.1875 429.265625 C6.86171485 419.27100195 8.1763933 411.17617782 14.640625 403.28515625 C19.66477783 398.03604135 25.68650675 395.43352084 32.328125 392.72265625 C33.08751302 386.90964174 33.50160909 381.11142176 33.79296875 375.2578125 C33.85117294 374.11220352 33.85117294 374.11220352 33.91055298 372.94345093 C34.07203224 369.74013558 34.23127878 366.53680728 34.37768555 363.33276367 C34.48683108 360.97394169 34.60768595 358.61595851 34.73046875 356.2578125 C34.76075668 355.53078629 34.79104462 354.80376007 34.82225037 354.05470276 C35.1009572 348.94982405 35.1009572 348.94982405 37.328125 346.72265625 C39.421875 346.45703125 39.421875 346.45703125 41.828125 346.47265625 C42.6221875 346.4675 43.41625 346.46234375 44.234375 346.45703125 C46.328125 346.72265625 46.328125 346.72265625 48.328125 348.72265625 C49.27812423 351.54938685 49.43024594 354.06663929 49.34985352 357.03222656 C49.32975723 357.87279602 49.30966095 358.71336548 49.28895569 359.57940674 C49.26192062 360.47746033 49.23488556 361.37551392 49.20703125 362.30078125 C49.18342026 363.22735535 49.15980927 364.15392944 49.13548279 365.10858154 C49.05900617 368.06343518 48.97491293 371.01801612 48.890625 373.97265625 C48.8373883 375.97785131 48.78464801 377.98305962 48.73242188 379.98828125 C48.60341264 384.89991175 48.46757279 389.81131147 48.328125 394.72265625 C51.57106173 396.98644613 51.57106173 396.98644613 55.30859375 397.6953125 C63.18297233 393.90281682 69.86061354 385.3801555 75.328125 378.72265625 C76.30441523 377.57008182 77.28100685 376.41776264 78.2578125 375.265625 C88.55048014 363.00136504 97.05455814 349.98086853 104.890625 336.03515625 C105.30852295 335.29281738 105.7264209 334.55047852 106.15698242 333.78564453 C108.32267684 329.84662751 110.06365688 326.06285762 111.328125 321.72265625 C106.3941986 317.06215307 101.45273416 312.40978302 96.50341797 307.765625 C95.1909258 306.53297242 93.87967057 305.29899827 92.57080078 304.0625 C85.46603684 297.35356333 78.07528605 291.21491497 70.33496094 285.27050781 C68.09713963 283.54449965 65.87220321 281.80267048 63.6484375 280.05859375 C62.04172384 278.80070821 60.43495364 277.5428949 58.828125 276.28515625 C58.07450684 275.69371826 57.32088867 275.10228027 56.54443359 274.49291992 C48.12238138 266.66236415 48.12238138 266.66236415 38.328125 267.72265625 Z M-243.546875 414.03515625 C-245.5700584 418.8683166 -246.1160397 422.29145888 -244.546875 427.34765625 C-242.31086936 431.37246641 -239.85562763 434.63077993 -235.671875 436.72265625 C-230.77554192 437.25984387 -226.8041191 437.24684333 -222.296875 435.16015625 C-218.13355086 431.29421241 -216.0311612 427.91829414 -215.109375 422.28515625 C-216.00761704 416.59629003 -218.63894944 412.52970119 -222.921875 408.72265625 C-230.79919748 405.85817535 -238.16748528 407.40057559 -243.546875 414.03515625 Z M24.89453125 414.453125 C22.39896235 418.77935343 21.75203671 422.62465593 22.5859375 427.54296875 C24.21432338 432.32528096 27.47212912 435.51876703 31.640625 438.22265625 C37.33641357 439.28233785 41.78199341 438.69614651 46.703125 435.59765625 C50.03010986 431.95381569 52.07629438 428.76261157 52.4921875 423.7421875 C52.24100802 418.74758024 50.35517107 415.7050925 46.9375 412.1328125 C43.94219191 409.50828284 41.39396691 408.86476851 37.515625 408.34765625 C32.47674756 408.94046536 28.2068567 410.4548684 24.89453125 414.453125 Z " fill="#000000" transform="translate(364.671875,29.27734375)"/>
</svg>
